<?xml version="1.0" encoding="UTF-8"?>
<!DOCTYPE svg PUBLIC "-//W3C//DTD SVG 1.1//EN" "http://www.w3.org/Graphics/SVG/1.1/DTD/svg11.dtd">
<svg xmlns="http://www.w3.org/2000/svg" version="1.1" width="640px" height="640px" style="shape-rendering:geometricPrecision; text-rendering:geometricPrecision; image-rendering:optimizeQuality; fill-rule:evenodd; clip-rule:evenodd" xmlns:xlink="http://www.w3.org/1999/xlink">
<g><path style="opacity:1" fill="#1a1b38" d="M -0.5,-0.5 C 19.5,-0.5 39.5,-0.5 59.5,-0.5C 59.5,6.16667 59.5,12.8333 59.5,19.5C 52.8333,19.5 46.1667,19.5 39.5,19.5C 39.5,39.5 39.5,59.5 39.5,79.5C 39.5,92.8333 39.5,106.167 39.5,119.5C 32.8333,119.5 26.1667,119.5 19.5,119.5C 19.5,106.167 19.5,92.8333 19.5,79.5C 12.8333,79.5 6.16667,79.5 -0.5,79.5C -0.5,52.8333 -0.5,26.1667 -0.5,-0.5 Z"/></g>
<g><path style="opacity:1" fill="#171933" d="M 59.5,-0.5 C 66.1667,-0.5 72.8333,-0.5 79.5,-0.5C 79.5,12.8333 79.5,26.1667 79.5,39.5C 72.8333,39.5 66.1667,39.5 59.5,39.5C 59.5,52.8333 59.5,66.1667 59.5,79.5C 52.8333,79.5 46.1667,79.5 39.5,79.5C 39.5,59.5 39.5,39.5 39.5,19.5C 46.1667,19.5 52.8333,19.5 59.5,19.5C 59.5,12.8333 59.5,6.16667 59.5,-0.5 Z"/></g>
<g><path style="opacity:1" fill="#15172e" d="M 79.5,-0.5 C 106.167,-0.5 132.833,-0.5 159.5,-0.5C 159.5,6.16667 159.5,12.8333 159.5,19.5C 152.833,19.5 146.167,19.5 139.5,19.5C 132.833,19.5 126.167,19.5 119.5,19.5C 119.5,26.1667 119.5,32.8333 119.5,39.5C 119.5,46.1667 119.5,52.8333 119.5,59.5C 119.5,66.1667 119.5,72.8333 119.5,79.5C 112.833,79.5 106.167,79.5 99.5,79.5C 99.5,86.1667 99.5,92.8333 99.5,99.5C 92.8333,99.5 86.1667,99.5 79.5,99.5C 79.5,166.167 79.5,232.833 79.5,299.5C 86.1667,299.5 92.8333,299.5 99.5,299.5C 99.5,319.5 99.5,339.5 99.5,359.5C 106.167,359.5 112.833,359.5 119.5,359.5C 119.5,379.5 119.5,399.5 119.5,419.5C 126.167,419.5 132.833,419.5 139.5,419.5C 139.5,426.167 139.5,432.833 139.5,439.5C 126.167,439.5 112.833,439.5 99.5,439.5C 99.5,446.167 99.5,452.833 99.5,459.5C 92.8333,459.5 86.1667,459.5 79.5,459.5C 79.5,452.833 79.5,446.167 79.5,439.5C 79.5,432.833 79.5,426.167 79.5,419.5C 72.8333,419.5 66.1667,419.5 59.5,419.5C 59.5,392.833 59.5,366.167 59.5,339.5C 46.1667,339.5 32.8333,339.5 19.5,339.5C 19.5,366.167 19.5,392.833 19.5,419.5C 12.8333,419.5 6.16667,419.5 -0.5,419.5C -0.5,326.167 -0.5,232.833 -0.5,139.5C 6.16667,139.5 12.8333,139.5 19.5,139.5C 19.5,159.5 19.5,179.5 19.5,199.5C 26.1667,199.5 32.8333,199.5 39.5,199.5C 39.5,172.833 39.5,146.167 39.5,119.5C 39.5,106.167 39.5,92.8333 39.5,79.5C 46.1667,79.5 52.8333,79.5 59.5,79.5C 59.5,66.1667 59.5,52.8333 59.5,39.5C 66.1667,39.5 72.8333,39.5 79.5,39.5C 79.5,26.1667 79.5,12.8333 79.5,-0.5 Z"/></g>
<g><path style="opacity:1" fill="#15162e" d="M 439.5,-0.5 C 466.167,-0.5 492.833,-0.5 519.5,-0.5C 519.5,6.16667 519.5,12.8333 519.5,19.5C 526.167,19.5 532.833,19.5 539.5,19.5C 539.5,26.1667 539.5,32.8333 539.5,39.5C 546.167,39.5 552.833,39.5 559.5,39.5C 559.5,46.1667 559.5,52.8333 559.5,59.5C 566.167,59.5 572.833,59.5 579.5,59.5C 579.5,72.8333 579.5,86.1667 579.5,99.5C 586.167,99.5 592.833,99.5 599.5,99.5C 599.5,112.833 599.5,126.167 599.5,139.5C 606.167,139.5 612.833,139.5 619.5,139.5C 619.5,159.5 619.5,179.5 619.5,199.5C 626.167,199.5 632.833,199.5 639.5,199.5C 639.5,246.167 639.5,292.833 639.5,339.5C 632.833,339.5 626.167,339.5 619.5,339.5C 619.5,366.167 619.5,392.833 619.5,419.5C 612.833,419.5 606.167,419.5 599.5,419.5C 599.5,432.833 599.5,446.167 599.5,459.5C 592.833,459.5 586.167,459.5 579.5,459.5C 579.5,466.167 579.5,472.833 579.5,479.5C 572.833,479.5 566.167,479.5 559.5,479.5C 559.5,472.833 559.5,466.167 559.5,459.5C 552.833,459.5 546.167,459.5 539.5,459.5C 539.5,466.167 539.5,472.833 539.5,479.5C 532.833,479.5 526.167,479.5 519.5,479.5C 519.5,472.833 519.5,466.167 519.5,459.5C 506.167,459.5 492.833,459.5 479.5,459.5C 479.5,452.833 479.5,446.167 479.5,439.5C 506.167,439.5 532.833,439.5 559.5,439.5C 559.5,426.167 559.5,412.833 559.5,399.5C 566.167,399.5 572.833,399.5 579.5,399.5C 579.5,359.5 579.5,319.5 579.5,279.5C 586.167,279.5 592.833,279.5 599.5,279.5C 599.5,266.167 599.5,252.833 599.5,239.5C 592.833,239.5 586.167,239.5 579.5,239.5C 579.5,219.5 579.5,199.5 579.5,179.5C 572.833,179.5 566.167,179.5 559.5,179.5C 559.5,159.5 559.5,139.5 559.5,119.5C 552.833,119.5 546.167,119.5 539.5,119.5C 539.5,112.833 539.5,106.167 539.5,99.5C 532.833,99.5 526.167,99.5 519.5,99.5C 519.5,86.1667 519.5,72.8333 519.5,59.5C 512.833,59.5 506.167,59.5 499.5,59.5C 499.5,52.8333 499.5,46.1667 499.5,39.5C 492.833,39.5 486.167,39.5 479.5,39.5C 479.5,32.8333 479.5,26.1667 479.5,19.5C 466.167,19.5 452.833,19.5 439.5,19.5C 439.5,12.8333 439.5,6.16667 439.5,-0.5 Z"/></g>
<g><path style="opacity:1" fill="#171933" d="M 519.5,-0.5 C 532.833,-0.5 546.167,-0.5 559.5,-0.5C 559.5,6.16667 559.5,12.8333 559.5,19.5C 566.167,19.5 572.833,19.5 579.5,19.5C 579.5,26.1667 579.5,32.8333 579.5,39.5C 586.167,39.5 592.833,39.5 599.5,39.5C 599.5,52.8333 599.5,66.1667 599.5,79.5C 606.167,79.5 612.833,79.5 619.5,79.5C 619.5,92.8333 619.5,106.167 619.5,119.5C 626.167,119.5 632.833,119.5 639.5,119.5C 639.5,146.167 639.5,172.833 639.5,199.5C 632.833,199.5 626.167,199.5 619.5,199.5C 619.5,179.5 619.5,159.5 619.5,139.5C 612.833,139.5 606.167,139.5 599.5,139.5C 599.5,126.167 599.5,112.833 599.5,99.5C 592.833,99.5 586.167,99.5 579.5,99.5C 579.5,86.1667 579.5,72.8333 579.5,59.5C 572.833,59.5 566.167,59.5 559.5,59.5C 559.5,52.8333 559.5,46.1667 559.5,39.5C 552.833,39.5 546.167,39.5 539.5,39.5C 539.5,32.8333 539.5,26.1667 539.5,19.5C 532.833,19.5 526.167,19.5 519.5,19.5C 519.5,12.8333 519.5,6.16667 519.5,-0.5 Z"/></g>
<g><path style="opacity:1" fill="#191b38" d="M 559.5,-0.5 C 586.167,-0.5 612.833,-0.5 639.5,-0.5C 639.5,39.5 639.5,79.5 639.5,119.5C 632.833,119.5 626.167,119.5 619.5,119.5C 619.5,106.167 619.5,92.8333 619.5,79.5C 612.833,79.5 606.167,79.5 599.5,79.5C 599.5,66.1667 599.5,52.8333 599.5,39.5C 592.833,39.5 586.167,39.5 579.5,39.5C 579.5,32.8333 579.5,26.1667 579.5,19.5C 572.833,19.5 566.167,19.5 559.5,19.5C 559.5,12.8333 559.5,6.16667 559.5,-0.5 Z"/></g>
<g><path style="opacity:1" fill="#2d025d" d="M 139.5,19.5 C 139.5,26.1667 139.5,32.8333 139.5,39.5C 132.833,39.5 126.167,39.5 119.5,39.5C 119.5,32.8333 119.5,26.1667 119.5,19.5C 126.167,19.5 132.833,19.5 139.5,19.5 Z"/></g>
<g><path style="opacity:1" fill="#260151" d="M 119.5,39.5 C 126.167,39.5 132.833,39.5 139.5,39.5C 146.167,39.5 152.833,39.5 159.5,39.5C 159.5,46.1667 159.5,52.8333 159.5,59.5C 146.167,59.5 132.833,59.5 119.5,59.5C 119.5,52.8333 119.5,46.1667 119.5,39.5 Z"/></g>
<g><path style="opacity:1" fill="#121429" d="M 119.5,59.5 C 132.833,59.5 146.167,59.5 159.5,59.5C 159.5,66.1667 159.5,72.8333 159.5,79.5C 152.833,79.5 146.167,79.5 139.5,79.5C 139.5,86.1667 139.5,92.8333 139.5,99.5C 146.167,99.5 152.833,99.5 159.5,99.5C 159.5,106.167 159.5,112.833 159.5,119.5C 166.167,119.5 172.833,119.5 179.5,119.5C 179.5,126.167 179.5,132.833 179.5,139.5C 172.833,139.5 166.167,139.5 159.5,139.5C 159.5,146.167 159.5,152.833 159.5,159.5C 159.5,166.167 159.5,172.833 159.5,179.5C 146.167,179.5 132.833,179.5 119.5,179.5C 119.5,186.167 119.5,192.833 119.5,199.5C 119.5,206.167 119.5,212.833 119.5,219.5C 119.5,226.167 119.5,232.833 119.5,239.5C 126.167,239.5 132.833,239.5 139.5,239.5C 139.5,246.167 139.5,252.833 139.5,259.5C 132.833,259.5 126.167,259.5 119.5,259.5C 119.5,266.167 119.5,272.833 119.5,279.5C 126.167,279.5 132.833,279.5 139.5,279.5C 139.5,286.167 139.5,292.833 139.5,299.5C 139.5,306.167 139.5,312.833 139.5,319.5C 146.167,319.5 152.833,319.5 159.5,319.5C 159.5,326.167 159.5,332.833 159.5,339.5C 159.5,352.833 159.5,366.167 159.5,379.5C 159.5,399.5 159.5,419.5 159.5,439.5C 152.833,439.5 146.167,439.5 139.5,439.5C 139.5,432.833 139.5,426.167 139.5,419.5C 132.833,419.5 126.167,419.5 119.5,419.5C 119.5,399.5 119.5,379.5 119.5,359.5C 112.833,359.5 106.167,359.5 99.5,359.5C 99.5,339.5 99.5,319.5 99.5,299.5C 92.8333,299.5 86.1667,299.5 79.5,299.5C 79.5,232.833 79.5,166.167 79.5,99.5C 86.1667,99.5 92.8333,99.5 99.5,99.5C 99.5,92.8333 99.5,86.1667 99.5,79.5C 106.167,79.5 112.833,79.5 119.5,79.5C 119.5,72.8333 119.5,66.1667 119.5,59.5 Z"/></g>
<g><path style="opacity:1" fill="#36036e" d="M 159.5,59.5 C 166.167,59.5 172.833,59.5 179.5,59.5C 179.5,66.1667 179.5,72.8333 179.5,79.5C 172.833,79.5 166.167,79.5 159.5,79.5C 159.5,72.8333 159.5,66.1667 159.5,59.5 Z"/></g>
<g><path style="opacity:1" fill="#121328" d="M 159.5,-0.5 C 252.833,-0.5 346.167,-0.5 439.5,-0.5C 439.5,6.16667 439.5,12.8333 439.5,19.5C 452.833,19.5 466.167,19.5 479.5,19.5C 479.5,26.1667 479.5,32.8333 479.5,39.5C 486.167,39.5 492.833,39.5 499.5,39.5C 499.5,46.1667 499.5,52.8333 499.5,59.5C 506.167,59.5 512.833,59.5 519.5,59.5C 519.5,72.8333 519.5,86.1667 519.5,99.5C 526.167,99.5 532.833,99.5 539.5,99.5C 539.5,106.167 539.5,112.833 539.5,119.5C 546.167,119.5 552.833,119.5 559.5,119.5C 559.5,139.5 559.5,159.5 559.5,179.5C 566.167,179.5 572.833,179.5 579.5,179.5C 579.5,199.5 579.5,219.5 579.5,239.5C 586.167,239.5 592.833,239.5 599.5,239.5C 599.5,252.833 599.5,266.167 599.5,279.5C 592.833,279.5 586.167,279.5 579.5,279.5C 579.5,319.5 579.5,359.5 579.5,399.5C 572.833,399.5 566.167,399.5 559.5,399.5C 559.5,412.833 559.5,426.167 559.5,439.5C 532.833,439.5 506.167,439.5 479.5,439.5C 479.5,426.167 479.5,412.833 479.5,399.5C 486.167,399.5 492.833,399.5 499.5,399.5C 499.5,386.167 499.5,372.833 499.5,359.5C 506.167,359.5 512.833,359.5 519.5,359.5C 519.5,352.833 519.5,346.167 519.5,339.5C 519.5,326.167 519.5,312.833 519.5,299.5C 512.833,299.5 506.167,299.5 499.5,299.5C 499.5,306.167 499.5,312.833 499.5,319.5C 492.833,319.5 486.167,319.5 479.5,319.5C 479.5,326.167 479.5,332.833 479.5,339.5C 472.833,339.5 466.167,339.5 459.5,339.5C 459.5,332.833 459.5,326.167 459.5,319.5C 459.5,312.833 459.5,306.167 459.5,299.5C 466.167,299.5 472.833,299.5 479.5,299.5C 479.5,286.167 479.5,272.833 479.5,259.5C 486.167,259.5 492.833,259.5 499.5,259.5C 499.5,252.833 499.5,246.167 499.5,239.5C 499.5,232.833 499.5,226.167 499.5,219.5C 492.833,219.5 486.167,219.5 479.5,219.5C 479.5,212.833 479.5,206.167 479.5,199.5C 472.833,199.5 466.167,199.5 459.5,199.5C 459.5,206.167 459.5,212.833 459.5,219.5C 459.5,226.167 459.5,232.833 459.5,239.5C 459.5,246.167 459.5,252.833 459.5,259.5C 452.833,259.5 446.167,259.5 439.5,259.5C 432.833,259.5 426.167,259.5 419.5,259.5C 419.5,252.833 419.5,246.167 419.5,239.5C 419.5,232.833 419.5,226.167 419.5,219.5C 419.5,212.833 419.5,206.167 419.5,199.5C 419.5,186.167 419.5,172.833 419.5,159.5C 412.833,159.5 406.167,159.5 399.5,159.5C 399.5,152.833 399.5,146.167 399.5,139.5C 386.167,139.5 372.833,139.5 359.5,139.5C 359.5,146.167 359.5,152.833 359.5,159.5C 352.833,159.5 346.167,159.5 339.5,159.5C 332.833,159.5 326.167,159.5 319.5,159.5C 319.5,166.167 319.5,172.833 319.5,179.5C 319.5,186.167 319.5,192.833 319.5,199.5C 312.833,199.5 306.167,199.5 299.5,199.5C 292.833,199.5 286.167,199.5 279.5,199.5C 279.5,206.167 279.5,212.833 279.5,219.5C 272.833,219.5 266.167,219.5 259.5,219.5C 259.5,212.833 259.5,206.167 259.5,199.5C 252.833,199.5 246.167,199.5 239.5,199.5C 239.5,192.833 239.5,186.167 239.5,179.5C 239.5,172.833 239.5,166.167 239.5,159.5C 232.833,159.5 226.167,159.5 219.5,159.5C 212.833,159.5 206.167,159.5 199.5,159.5C 199.5,146.167 199.5,132.833 199.5,119.5C 192.833,119.5 186.167,119.5 179.5,119.5C 172.833,119.5 166.167,119.5 159.5,119.5C 159.5,112.833 159.5,106.167 159.5,99.5C 159.5,92.8333 159.5,86.1667 159.5,79.5C 166.167,79.5 172.833,79.5 179.5,79.5C 179.5,72.8333 179.5,66.1667 179.5,59.5C 172.833,59.5 166.167,59.5 159.5,59.5C 159.5,52.8333 159.5,46.1667 159.5,39.5C 152.833,39.5 146.167,39.5 139.5,39.5C 139.5,32.8333 139.5,26.1667 139.5,19.5C 146.167,19.5 152.833,19.5 159.5,19.5C 159.5,12.8333 159.5,6.16667 159.5,-0.5 Z"/></g>
<g><path style="opacity:1" fill="#2b015a" d="M 499.5,59.5 C 499.5,66.1667 499.5,72.8333 499.5,79.5C 492.833,79.5 486.167,79.5 479.5,79.5C 479.5,72.8333 479.5,66.1667 479.5,59.5C 486.167,59.5 492.833,59.5 499.5,59.5 Z"/></g>
<g><path style="opacity:1" fill="#340669" d="M 359.5,59.5 C 372.833,59.5 386.167,59.5 399.5,59.5C 399.5,66.1667 399.5,72.8333 399.5,79.5C 392.833,79.5 386.167,79.5 379.5,79.5C 372.833,79.5 366.167,79.5 359.5,79.5C 359.5,72.8333 359.5,66.1667 359.5,59.5 Z"/></g>
<g><path style="opacity:1" fill="#301d61" d="M 339.5,59.5 C 339.5,66.1667 339.5,72.8333 339.5,79.5C 332.833,79.5 326.167,79.5 319.5,79.5C 319.5,72.8333 319.5,66.1667 319.5,59.5C 326.167,59.5 332.833,59.5 339.5,59.5 Z"/></g>
<g><path style="opacity:1" fill="#2b025a" d="M 359.5,59.5 C 352.833,59.5 346.167,59.5 339.5,59.5C 339.5,46.1667 339.5,32.8333 339.5,19.5C 346.167,19.5 352.833,19.5 359.5,19.5C 359.5,32.8333 359.5,46.1667 359.5,59.5 Z"/></g>
<g><path style="opacity:1" fill="#3a0a71" d="M 219.5,39.5 C 226.167,39.5 232.833,39.5 239.5,39.5C 246.167,39.5 252.833,39.5 259.5,39.5C 259.5,52.8333 259.5,66.1667 259.5,79.5C 252.833,79.5 246.167,79.5 239.5,79.5C 239.5,72.8333 239.5,66.1667 239.5,59.5C 232.833,59.5 226.167,59.5 219.5,59.5C 219.5,52.8333 219.5,46.1667 219.5,39.5 Z"/></g>
<g><path style="opacity:1" fill="#312163" d="M 219.5,39.5 C 219.5,46.1667 219.5,52.8333 219.5,59.5C 212.833,59.5 206.167,59.5 199.5,59.5C 199.5,52.8333 199.5,46.1667 199.5,39.5C 206.167,39.5 212.833,39.5 219.5,39.5 Z"/></g>
<g><path style="opacity:1" fill="#310463" d="M 259.5,39.5 C 252.833,39.5 246.167,39.5 239.5,39.5C 239.5,32.8333 239.5,26.1667 239.5,19.5C 246.167,19.5 252.833,19.5 259.5,19.5C 259.5,26.1667 259.5,32.8333 259.5,39.5 Z"/></g>
<g><path style="opacity:1" fill="#171933" d="M -0.5,79.5 C 6.16667,79.5 12.8333,79.5 19.5,79.5C 19.5,92.8333 19.5,106.167 19.5,119.5C 26.1667,119.5 32.8333,119.5 39.5,119.5C 39.5,146.167 39.5,172.833 39.5,199.5C 32.8333,199.5 26.1667,199.5 19.5,199.5C 19.5,179.5 19.5,159.5 19.5,139.5C 12.8333,139.5 6.16667,139.5 -0.5,139.5C -0.5,119.5 -0.5,99.5 -0.5,79.5 Z"/></g>
<g><path style="opacity:1" fill="#370670" d="M 159.5,79.5 C 159.5,86.1667 159.5,92.8333 159.5,99.5C 152.833,99.5 146.167,99.5 139.5,99.5C 139.5,92.8333 139.5,86.1667 139.5,79.5C 146.167,79.5 152.833,79.5 159.5,79.5 Z"/></g>
<g><path style="opacity:1" fill="#2f2260" d="M 199.5,119.5 C 199.5,106.167 199.5,92.8333 199.5,79.5C 206.167,79.5 212.833,79.5 219.5,79.5C 219.5,92.8333 219.5,106.167 219.5,119.5C 212.833,119.5 206.167,119.5 199.5,119.5 Z"/></g>
<g><path style="opacity:1" fill="#470294" d="M 239.5,79.5 C 246.167,79.5 252.833,79.5 259.5,79.5C 259.5,86.1667 259.5,92.8333 259.5,99.5C 252.833,99.5 246.167,99.5 239.5,99.5C 239.5,92.8333 239.5,86.1667 239.5,79.5 Z"/></g>
<g><path style="opacity:1" fill="#3f0d79" d="M 359.5,79.5 C 366.167,79.5 372.833,79.5 379.5,79.5C 379.5,86.1667 379.5,92.8333 379.5,99.5C 372.833,99.5 366.167,99.5 359.5,99.5C 359.5,92.8333 359.5,86.1667 359.5,79.5 Z"/></g>
<g><path style="opacity:1" fill="#2b015a" d="M 479.5,79.5 C 479.5,86.1667 479.5,92.8333 479.5,99.5C 472.833,99.5 466.167,99.5 459.5,99.5C 459.5,92.8333 459.5,86.1667 459.5,79.5C 466.167,79.5 472.833,79.5 479.5,79.5 Z"/></g>
<g><path style="opacity:1" fill="#470096" d="M 479.5,79.5 C 486.167,79.5 492.833,79.5 499.5,79.5C 499.5,86.1667 499.5,92.8333 499.5,99.5C 492.833,99.5 486.167,99.5 479.5,99.5C 479.5,92.8333 479.5,86.1667 479.5,79.5 Z"/></g>
<g><path style="opacity:1" fill="#3e057e" d="M 159.5,99.5 C 166.167,99.5 172.833,99.5 179.5,99.5C 179.5,106.167 179.5,112.833 179.5,119.5C 179.5,112.833 179.5,106.167 179.5,99.5C 172.833,99.5 166.167,99.5 159.5,99.5 Z"/></g>
<g><path style="opacity:1" fill="#2b015a" d="M 239.5,99.5 C 246.167,99.5 252.833,99.5 259.5,99.5C 266.167,99.5 272.833,99.5 279.5,99.5C 279.5,112.833 279.5,126.167 279.5,139.5C 272.833,139.5 266.167,139.5 259.5,139.5C 259.5,132.833 259.5,126.167 259.5,119.5C 252.833,119.5 246.167,119.5 239.5,119.5C 239.5,112.833 239.5,106.167 239.5,99.5 Z"/></g>
<g><path style="opacity:1" fill="#43147e" d="M 359.5,99.5 C 359.5,106.167 359.5,112.833 359.5,119.5C 352.833,119.5 346.167,119.5 339.5,119.5C 339.5,112.833 339.5,106.167 339.5,99.5C 346.167,99.5 352.833,99.5 359.5,99.5 Z"/></g>
<g><path style="opacity:1" fill="#350171" d="M 379.5,99.5 C 386.167,99.5 392.833,99.5 399.5,99.5C 399.5,106.167 399.5,112.833 399.5,119.5C 392.833,119.5 386.167,119.5 379.5,119.5C 379.5,112.833 379.5,106.167 379.5,99.5 Z"/></g>
<g><path style="opacity:1" fill="#470096" d="M 459.5,99.5 C 466.167,99.5 472.833,99.5 479.5,99.5C 479.5,106.167 479.5,112.833 479.5,119.5C 472.833,119.5 466.167,119.5 459.5,119.5C 459.5,112.833 459.5,106.167 459.5,99.5 Z"/></g>
<g><path style="opacity:1" fill="#3e0a7c" d="M 179.5,119.5 C 186.167,119.5 192.833,119.5 199.5,119.5C 199.5,132.833 199.5,146.167 199.5,159.5C 192.833,159.5 186.167,159.5 179.5,159.5C 172.833,159.5 166.167,159.5 159.5,159.5C 159.5,152.833 159.5,146.167 159.5,139.5C 166.167,139.5 172.833,139.5 179.5,139.5C 179.5,132.833 179.5,126.167 179.5,119.5 Z"/></g>
<g><path style="opacity:1" fill="#330565" d="M 319.5,119.5 C 319.5,126.167 319.5,132.833 319.5,139.5C 312.833,139.5 306.167,139.5 299.5,139.5C 299.5,132.833 299.5,126.167 299.5,119.5C 306.167,119.5 312.833,119.5 319.5,119.5 Z"/></g>
<g><path style="opacity:1" fill="#3b1a72" d="M 319.5,119.5 C 326.167,119.5 332.833,119.5 339.5,119.5C 339.5,126.167 339.5,132.833 339.5,139.5C 332.833,139.5 326.167,139.5 319.5,139.5C 319.5,132.833 319.5,126.167 319.5,119.5 Z"/></g>
<g><path style="opacity:1" fill="#450191" d="M 299.5,139.5 C 306.167,139.5 312.833,139.5 319.5,139.5C 319.5,146.167 319.5,152.833 319.5,159.5C 312.833,159.5 306.167,159.5 299.5,159.5C 299.5,152.833 299.5,146.167 299.5,139.5 Z"/></g>
<g><path style="opacity:1" fill="#43008e" d="M 399.5,159.5 C 392.833,159.5 386.167,159.5 379.5,159.5C 372.833,159.5 366.167,159.5 359.5,159.5C 359.5,152.833 359.5,146.167 359.5,139.5C 372.833,139.5 386.167,139.5 399.5,139.5C 399.5,146.167 399.5,152.833 399.5,159.5 Z"/></g>
<g><path style="opacity:1" fill="#38086e" d="M 159.5,159.5 C 166.167,159.5 172.833,159.5 179.5,159.5C 179.5,166.167 179.5,172.833 179.5,179.5C 172.833,179.5 166.167,179.5 159.5,179.5C 159.5,172.833 159.5,166.167 159.5,159.5 Z"/></g>
<g><path style="opacity:1" fill="#121328" d="M 179.5,159.5 C 186.167,159.5 192.833,159.5 199.5,159.5C 199.5,166.167 199.5,172.833 199.5,179.5C 199.5,186.167 199.5,192.833 199.5,199.5C 206.167,199.5 212.833,199.5 219.5,199.5C 219.5,206.167 219.5,212.833 219.5,219.5C 212.833,219.5 206.167,219.5 199.5,219.5C 199.5,226.167 199.5,232.833 199.5,239.5C 192.833,239.5 186.167,239.5 179.5,239.5C 172.833,239.5 166.167,239.5 159.5,239.5C 159.5,232.833 159.5,226.167 159.5,219.5C 159.5,212.833 159.5,206.167 159.5,199.5C 166.167,199.5 172.833,199.5 179.5,199.5C 179.5,192.833 179.5,186.167 179.5,179.5C 179.5,172.833 179.5,166.167 179.5,159.5 Z"/></g>
<g><path style="opacity:1" fill="#37196c" d="M 199.5,159.5 C 206.167,159.5 212.833,159.5 219.5,159.5C 219.5,166.167 219.5,172.833 219.5,179.5C 212.833,179.5 206.167,179.5 199.5,179.5C 199.5,172.833 199.5,166.167 199.5,159.5 Z"/></g>
<g><path style="opacity:1" fill="#42167c" d="M 219.5,159.5 C 226.167,159.5 232.833,159.5 239.5,159.5C 239.5,166.167 239.5,172.833 239.5,179.5C 232.833,179.5 226.167,179.5 219.5,179.5C 219.5,172.833 219.5,166.167 219.5,159.5 Z"/></g>
<g><path style="opacity:1" fill="#460093" d="M 299.5,159.5 C 299.5,166.167 299.5,172.833 299.5,179.5C 292.833,179.5 286.167,179.5 279.5,179.5C 279.5,172.833 279.5,166.167 279.5,159.5C 286.167,159.5 292.833,159.5 299.5,159.5 Z"/></g>
<g><path style="opacity:1" fill="#351368" d="M 319.5,159.5 C 326.167,159.5 332.833,159.5 339.5,159.5C 339.5,166.167 339.5,172.833 339.5,179.5C 332.833,179.5 326.167,179.5 319.5,179.5C 319.5,172.833 319.5,166.167 319.5,159.5 Z"/></g>
<g><path style="opacity:1" fill="#380472" d="M 339.5,159.5 C 346.167,159.5 352.833,159.5 359.5,159.5C 359.5,166.167 359.5,172.833 359.5,179.5C 352.833,179.5 346.167,179.5 339.5,179.5C 339.5,172.833 339.5,166.167 339.5,159.5 Z"/></g>
<g><path style="opacity:1" fill="#3a017b" d="M 359.5,159.5 C 366.167,159.5 372.833,159.5 379.5,159.5C 379.5,166.167 379.5,172.833 379.5,179.5C 372.833,179.5 366.167,179.5 359.5,179.5C 359.5,172.833 359.5,166.167 359.5,159.5 Z"/></g>
<g><path style="opacity:1" fill="#121328" d="M 379.5,159.5 C 386.167,159.5 392.833,159.5 399.5,159.5C 399.5,172.833 399.5,186.167 399.5,199.5C 392.833,199.5 386.167,199.5 379.5,199.5C 379.5,192.833 379.5,186.167 379.5,179.5C 379.5,172.833 379.5,166.167 379.5,159.5 Z"/></g>
<g><path style="opacity:1" fill="#2f215f" d="M 399.5,159.5 C 406.167,159.5 412.833,159.5 419.5,159.5C 419.5,172.833 419.5,186.167 419.5,199.5C 412.833,199.5 406.167,199.5 399.5,199.5C 399.5,186.167 399.5,172.833 399.5,159.5 Z"/></g>
<g><path style="opacity:1" fill="#470194" d="M 459.5,179.5 C 459.5,172.833 459.5,166.167 459.5,159.5C 459.5,152.833 459.5,146.167 459.5,139.5C 466.167,139.5 472.833,139.5 479.5,139.5C 479.5,146.167 479.5,152.833 479.5,159.5C 486.167,159.5 492.833,159.5 499.5,159.5C 499.5,166.167 499.5,172.833 499.5,179.5C 486.167,179.5 472.833,179.5 459.5,179.5 Z"/></g>
<g><path style="opacity:1" fill="#2d055e" d="M 159.5,179.5 C 159.5,186.167 159.5,192.833 159.5,199.5C 159.5,206.167 159.5,212.833 159.5,219.5C 152.833,219.5 146.167,219.5 139.5,219.5C 139.5,212.833 139.5,206.167 139.5,199.5C 132.833,199.5 126.167,199.5 119.5,199.5C 119.5,192.833 119.5,186.167 119.5,179.5C 132.833,179.5 146.167,179.5 159.5,179.5 Z"/></g>
<g><path style="opacity:1" fill="#250150" d="M 159.5,179.5 C 166.167,179.5 172.833,179.5 179.5,179.5C 179.5,186.167 179.5,192.833 179.5,199.5C 172.833,199.5 166.167,199.5 159.5,199.5C 159.5,192.833 159.5,186.167 159.5,179.5 Z"/></g>
<g><path style="opacity:1" fill="#321b64" d="M 199.5,179.5 C 206.167,179.5 212.833,179.5 219.5,179.5C 226.167,179.5 232.833,179.5 239.5,179.5C 239.5,186.167 239.5,192.833 239.5,199.5C 232.833,199.5 226.167,199.5 219.5,199.5C 212.833,199.5 206.167,199.5 199.5,199.5C 199.5,192.833 199.5,186.167 199.5,179.5 Z"/></g>
<g><path style="opacity:1" fill="#34016d" d="M 359.5,179.5 C 366.167,179.5 372.833,179.5 379.5,179.5C 379.5,186.167 379.5,192.833 379.5,199.5C 379.5,206.167 379.5,212.833 379.5,219.5C 372.833,219.5 366.167,219.5 359.5,219.5C 359.5,206.167 359.5,192.833 359.5,179.5 Z"/></g>
<g><path style="opacity:1" fill="#2f0361" d="M 459.5,159.5 C 459.5,166.167 459.5,172.833 459.5,179.5C 459.5,186.167 459.5,192.833 459.5,199.5C 452.833,199.5 446.167,199.5 439.5,199.5C 439.5,186.167 439.5,172.833 439.5,159.5C 446.167,159.5 452.833,159.5 459.5,159.5 Z"/></g>
<g><path style="opacity:1" fill="#35096e" d="M 119.5,199.5 C 126.167,199.5 132.833,199.5 139.5,199.5C 139.5,206.167 139.5,212.833 139.5,219.5C 132.833,219.5 126.167,219.5 119.5,219.5C 119.5,212.833 119.5,206.167 119.5,199.5 Z"/></g>
<g><path style="opacity:1" fill="#31185c" d="M 219.5,199.5 C 226.167,199.5 232.833,199.5 239.5,199.5C 246.167,199.5 252.833,199.5 259.5,199.5C 259.5,206.167 259.5,212.833 259.5,219.5C 246.167,219.5 232.833,219.5 219.5,219.5C 219.5,212.833 219.5,206.167 219.5,199.5 Z"/></g>
<g><path style="opacity:1" fill="#45008f" d="M 299.5,199.5 C 299.5,206.167 299.5,212.833 299.5,219.5C 292.833,219.5 286.167,219.5 279.5,219.5C 279.5,212.833 279.5,206.167 279.5,199.5C 286.167,199.5 292.833,199.5 299.5,199.5 Z"/></g>
<g><path style="opacity:1" fill="#3e0281" d="M 299.5,199.5 C 306.167,199.5 312.833,199.5 319.5,199.5C 319.5,206.167 319.5,212.833 319.5,219.5C 312.833,219.5 306.167,219.5 299.5,219.5C 299.5,212.833 299.5,206.167 299.5,199.5 Z"/></g>
<g><path style="opacity:1" fill="#3a0872" d="M 319.5,179.5 C 326.167,179.5 332.833,179.5 339.5,179.5C 339.5,192.833 339.5,206.167 339.5,219.5C 332.833,219.5 326.167,219.5 319.5,219.5C 319.5,212.833 319.5,206.167 319.5,199.5C 319.5,192.833 319.5,186.167 319.5,179.5 Z"/></g>
<g><path style="opacity:1" fill="#310463" d="M 339.5,179.5 C 346.167,179.5 352.833,179.5 359.5,179.5C 359.5,192.833 359.5,206.167 359.5,219.5C 352.833,219.5 346.167,219.5 339.5,219.5C 339.5,206.167 339.5,192.833 339.5,179.5 Z"/></g>
<g><path style="opacity:1" fill="#2d1a5c" d="M 379.5,199.5 C 386.167,199.5 392.833,199.5 399.5,199.5C 399.5,206.167 399.5,212.833 399.5,219.5C 392.833,219.5 386.167,219.5 379.5,219.5C 379.5,212.833 379.5,206.167 379.5,199.5 Z"/></g>
<g><path style="opacity:1" fill="#460094" d="M 399.5,199.5 C 406.167,199.5 412.833,199.5 419.5,199.5C 419.5,206.167 419.5,212.833 419.5,219.5C 412.833,219.5 406.167,219.5 399.5,219.5C 399.5,212.833 399.5,206.167 399.5,199.5 Z"/></g>
<g><path style="opacity:1" fill="#460e86" d="M 459.5,199.5 C 466.167,199.5 472.833,199.5 479.5,199.5C 479.5,206.167 479.5,212.833 479.5,219.5C 472.833,219.5 466.167,219.5 459.5,219.5C 459.5,212.833 459.5,206.167 459.5,199.5 Z"/></g>
<g><path style="opacity:1" fill="#340555" d="M 219.5,219.5 C 232.833,219.5 246.167,219.5 259.5,219.5C 259.5,226.167 259.5,232.833 259.5,239.5C 252.833,239.5 246.167,239.5 239.5,239.5C 239.5,252.833 239.5,266.167 239.5,279.5C 232.833,279.5 226.167,279.5 219.5,279.5C 219.5,286.167 219.5,292.833 219.5,299.5C 212.833,299.5 206.167,299.5 199.5,299.5C 199.5,292.833 199.5,286.167 199.5,279.5C 199.5,266.167 199.5,252.833 199.5,239.5C 199.5,232.833 199.5,226.167 199.5,219.5C 206.167,219.5 212.833,219.5 219.5,219.5 Z"/></g>
<g><path style="opacity:1" fill="#46008e" d="M 259.5,219.5 C 266.167,219.5 272.833,219.5 279.5,219.5C 279.5,226.167 279.5,232.833 279.5,239.5C 272.833,239.5 266.167,239.5 259.5,239.5C 259.5,232.833 259.5,226.167 259.5,219.5 Z"/></g>
<g><path style="opacity:1" fill="#4f009f" d="M 279.5,219.5 C 286.167,219.5 292.833,219.5 299.5,219.5C 306.167,219.5 312.833,219.5 319.5,219.5C 319.5,226.167 319.5,232.833 319.5,239.5C 312.833,239.5 306.167,239.5 299.5,239.5C 292.833,239.5 286.167,239.5 279.5,239.5C 279.5,232.833 279.5,226.167 279.5,219.5 Z"/></g>
<g><path style="opacity:1" fill="#440089" d="M 319.5,219.5 C 326.167,219.5 332.833,219.5 339.5,219.5C 339.5,226.167 339.5,232.833 339.5,239.5C 332.833,239.5 326.167,239.5 319.5,239.5C 319.5,232.833 319.5,226.167 319.5,219.5 Z"/></g>
<g><path style="opacity:1" fill="#3e0080" d="M 339.5,219.5 C 346.167,219.5 352.833,219.5 359.5,219.5C 366.167,219.5 372.833,219.5 379.5,219.5C 379.5,226.167 379.5,232.833 379.5,239.5C 379.5,246.167 379.5,252.833 379.5,259.5C 372.833,259.5 366.167,259.5 359.5,259.5C 359.5,252.833 359.5,246.167 359.5,239.5C 352.833,239.5 346.167,239.5 339.5,239.5C 339.5,232.833 339.5,226.167 339.5,219.5 Z"/></g>
<g><path style="opacity:1" fill="#321059" d="M 379.5,219.5 C 386.167,219.5 392.833,219.5 399.5,219.5C 406.167,219.5 412.833,219.5 419.5,219.5C 419.5,226.167 419.5,232.833 419.5,239.5C 406.167,239.5 392.833,239.5 379.5,239.5C 379.5,232.833 379.5,226.167 379.5,219.5 Z"/></g>
<g><path style="opacity:1" fill="#380472" d="M 459.5,219.5 C 466.167,219.5 472.833,219.5 479.5,219.5C 479.5,226.167 479.5,232.833 479.5,239.5C 472.833,239.5 466.167,239.5 459.5,239.5C 459.5,232.833 459.5,226.167 459.5,219.5 Z"/></g>
<g><path style="opacity:1" fill="#2d025e" d="M 479.5,219.5 C 486.167,219.5 492.833,219.5 499.5,219.5C 499.5,226.167 499.5,232.833 499.5,239.5C 492.833,239.5 486.167,239.5 479.5,239.5C 479.5,232.833 479.5,226.167 479.5,219.5 Z"/></g>
<g><path style="opacity:1" fill="#3a0577" d="M 119.5,219.5 C 126.167,219.5 132.833,219.5 139.5,219.5C 146.167,219.5 152.833,219.5 159.5,219.5C 159.5,226.167 159.5,232.833 159.5,239.5C 166.167,239.5 172.833,239.5 179.5,239.5C 179.5,246.167 179.5,252.833 179.5,259.5C 166.167,259.5 152.833,259.5 139.5,259.5C 139.5,252.833 139.5,246.167 139.5,239.5C 132.833,239.5 126.167,239.5 119.5,239.5C 119.5,232.833 119.5,226.167 119.5,219.5 Z"/></g>
<g><path style="opacity:1" fill="#30155b" d="M 179.5,239.5 C 186.167,239.5 192.833,239.5 199.5,239.5C 199.5,252.833 199.5,266.167 199.5,279.5C 192.833,279.5 186.167,279.5 179.5,279.5C 179.5,272.833 179.5,266.167 179.5,259.5C 179.5,252.833 179.5,246.167 179.5,239.5 Z"/></g>
<g><path style="opacity:1" fill="#480089" d="M 259.5,239.5 C 259.5,246.167 259.5,252.833 259.5,259.5C 259.5,266.167 259.5,272.833 259.5,279.5C 259.5,286.167 259.5,292.833 259.5,299.5C 252.833,299.5 246.167,299.5 239.5,299.5C 239.5,292.833 239.5,286.167 239.5,279.5C 239.5,266.167 239.5,252.833 239.5,239.5C 246.167,239.5 252.833,239.5 259.5,239.5 Z"/></g>
<g><path style="opacity:1" fill="#50019c" d="M 259.5,239.5 C 266.167,239.5 272.833,239.5 279.5,239.5C 279.5,246.167 279.5,252.833 279.5,259.5C 272.833,259.5 266.167,259.5 259.5,259.5C 259.5,252.833 259.5,246.167 259.5,239.5 Z"/></g>
<g><path style="opacity:1" fill="#8001d3" d="M 279.5,239.5 C 286.167,239.5 292.833,239.5 299.5,239.5C 299.5,246.167 299.5,252.833 299.5,259.5C 292.833,259.5 286.167,259.5 279.5,259.5C 279.5,252.833 279.5,246.167 279.5,239.5 Z"/></g>
<g><path style="opacity:1" fill="#a700e9" d="M 299.5,239.5 C 306.167,239.5 312.833,239.5 319.5,239.5C 319.5,246.167 319.5,252.833 319.5,259.5C 312.833,259.5 306.167,259.5 299.5,259.5C 299.5,252.833 299.5,246.167 299.5,239.5 Z"/></g>
<g><path style="opacity:1" fill="#8300d1" d="M 319.5,239.5 C 326.167,239.5 332.833,239.5 339.5,239.5C 339.5,246.167 339.5,252.833 339.5,259.5C 332.833,259.5 326.167,259.5 319.5,259.5C 319.5,252.833 319.5,246.167 319.5,239.5 Z"/></g>
<g><path style="opacity:1" fill="#5201a0" d="M 339.5,239.5 C 346.167,239.5 352.833,239.5 359.5,239.5C 359.5,246.167 359.5,252.833 359.5,259.5C 352.833,259.5 346.167,259.5 339.5,259.5C 339.5,252.833 339.5,246.167 339.5,239.5 Z"/></g>
<g><path style="opacity:1" fill="#350255" d="M 379.5,239.5 C 392.833,239.5 406.167,239.5 419.5,239.5C 419.5,246.167 419.5,252.833 419.5,259.5C 419.5,266.167 419.5,272.833 419.5,279.5C 412.833,279.5 406.167,279.5 399.5,279.5C 399.5,286.167 399.5,292.833 399.5,299.5C 392.833,299.5 386.167,299.5 379.5,299.5C 379.5,312.833 379.5,326.167 379.5,339.5C 379.5,346.167 379.5,352.833 379.5,359.5C 372.833,359.5 366.167,359.5 359.5,359.5C 359.5,366.167 359.5,372.833 359.5,379.5C 352.833,379.5 346.167,379.5 339.5,379.5C 339.5,372.833 339.5,366.167 339.5,359.5C 339.5,352.833 339.5,346.167 339.5,339.5C 339.5,332.833 339.5,326.167 339.5,319.5C 339.5,312.833 339.5,306.167 339.5,299.5C 346.167,299.5 352.833,299.5 359.5,299.5C 359.5,292.833 359.5,286.167 359.5,279.5C 366.167,279.5 372.833,279.5 379.5,279.5C 379.5,272.833 379.5,266.167 379.5,259.5C 379.5,252.833 379.5,246.167 379.5,239.5 Z"/></g>
<g><path style="opacity:1" fill="#2e015f" d="M 459.5,239.5 C 466.167,239.5 472.833,239.5 479.5,239.5C 479.5,246.167 479.5,252.833 479.5,259.5C 472.833,259.5 466.167,259.5 459.5,259.5C 459.5,252.833 459.5,246.167 459.5,239.5 Z"/></g>
<g><path style="opacity:1" fill="#23004b" d="M 479.5,239.5 C 486.167,239.5 492.833,239.5 499.5,239.5C 499.5,246.167 499.5,252.833 499.5,259.5C 492.833,259.5 486.167,259.5 479.5,259.5C 479.5,252.833 479.5,246.167 479.5,239.5 Z"/></g>
<g><path style="opacity:1" fill="#3d087c" d="M 139.5,259.5 C 139.5,266.167 139.5,272.833 139.5,279.5C 132.833,279.5 126.167,279.5 119.5,279.5C 119.5,272.833 119.5,266.167 119.5,259.5C 126.167,259.5 132.833,259.5 139.5,259.5 Z"/></g>
<g><path style="opacity:1" fill="#4d0698" d="M 139.5,259.5 C 152.833,259.5 166.167,259.5 179.5,259.5C 179.5,266.167 179.5,272.833 179.5,279.5C 172.833,279.5 166.167,279.5 159.5,279.5C 152.833,279.5 146.167,279.5 139.5,279.5C 139.5,272.833 139.5,266.167 139.5,259.5 Z"/></g>
<g><path style="opacity:1" fill="#6303b2" d="M 259.5,259.5 C 266.167,259.5 272.833,259.5 279.5,259.5C 279.5,266.167 279.5,272.833 279.5,279.5C 272.833,279.5 266.167,279.5 259.5,279.5C 259.5,272.833 259.5,266.167 259.5,259.5 Z"/></g>
<g><path style="opacity:1" fill="#de05fc" d="M 299.5,259.5 C 306.167,259.5 312.833,259.5 319.5,259.5C 319.5,266.167 319.5,272.833 319.5,279.5C 312.833,279.5 306.167,279.5 299.5,279.5C 299.5,272.833 299.5,266.167 299.5,259.5 Z"/></g>
<g><path style="opacity:1" fill="#ba06ee" d="M 319.5,259.5 C 326.167,259.5 332.833,259.5 339.5,259.5C 339.5,266.167 339.5,272.833 339.5,279.5C 332.833,279.5 326.167,279.5 319.5,279.5C 319.5,272.833 319.5,266.167 319.5,259.5 Z"/></g>
<g><path style="opacity:1" fill="#6209a1" d="M 339.5,259.5 C 346.167,259.5 352.833,259.5 359.5,259.5C 359.5,266.167 359.5,272.833 359.5,279.5C 352.833,279.5 346.167,279.5 339.5,279.5C 339.5,272.833 339.5,266.167 339.5,259.5 Z"/></g>
<g><path style="opacity:1" fill="#4a0a76" d="M 359.5,259.5 C 366.167,259.5 372.833,259.5 379.5,259.5C 379.5,266.167 379.5,272.833 379.5,279.5C 372.833,279.5 366.167,279.5 359.5,279.5C 359.5,272.833 359.5,266.167 359.5,259.5 Z"/></g>
<g><path style="opacity:1" fill="#480b6c" d="M 419.5,259.5 C 426.167,259.5 432.833,259.5 439.5,259.5C 439.5,266.167 439.5,272.833 439.5,279.5C 432.833,279.5 426.167,279.5 419.5,279.5C 419.5,272.833 419.5,266.167 419.5,259.5 Z"/></g>
<g><path style="opacity:1" fill="#3c0473" d="M 439.5,259.5 C 446.167,259.5 452.833,259.5 459.5,259.5C 466.167,259.5 472.833,259.5 479.5,259.5C 479.5,272.833 479.5,286.167 479.5,299.5C 472.833,299.5 466.167,299.5 459.5,299.5C 459.5,292.833 459.5,286.167 459.5,279.5C 452.833,279.5 446.167,279.5 439.5,279.5C 439.5,272.833 439.5,266.167 439.5,259.5 Z"/></g>
<g><path style="opacity:1" fill="#6204b3" d="M 139.5,279.5 C 146.167,279.5 152.833,279.5 159.5,279.5C 159.5,286.167 159.5,292.833 159.5,299.5C 152.833,299.5 146.167,299.5 139.5,299.5C 139.5,292.833 139.5,286.167 139.5,279.5 Z"/></g>
<g><path style="opacity:1" fill="#8506d4" d="M 159.5,279.5 C 166.167,279.5 172.833,279.5 179.5,279.5C 179.5,286.167 179.5,292.833 179.5,299.5C 172.833,299.5 166.167,299.5 159.5,299.5C 159.5,292.833 159.5,286.167 159.5,279.5 Z"/></g>
<g><path style="opacity:1" fill="#381a6f" d="M 179.5,279.5 C 186.167,279.5 192.833,279.5 199.5,279.5C 199.5,286.167 199.5,292.833 199.5,299.5C 192.833,299.5 186.167,299.5 179.5,299.5C 179.5,292.833 179.5,286.167 179.5,279.5 Z"/></g>
<g><path style="opacity:1" fill="#46047b" d="M 239.5,279.5 C 239.5,286.167 239.5,292.833 239.5,299.5C 232.833,299.5 226.167,299.5 219.5,299.5C 219.5,292.833 219.5,286.167 219.5,279.5C 226.167,279.5 232.833,279.5 239.5,279.5 Z"/></g>
<g><path style="opacity:1" fill="#800bca" d="M 259.5,279.5 C 266.167,279.5 272.833,279.5 279.5,279.5C 279.5,286.167 279.5,292.833 279.5,299.5C 272.833,299.5 266.167,299.5 259.5,299.5C 259.5,292.833 259.5,286.167 259.5,279.5 Z"/></g>
<g><path style="opacity:1" fill="#b413ea" d="M 279.5,259.5 C 286.167,259.5 292.833,259.5 299.5,259.5C 299.5,266.167 299.5,272.833 299.5,279.5C 299.5,286.167 299.5,292.833 299.5,299.5C 292.833,299.5 286.167,299.5 279.5,299.5C 279.5,292.833 279.5,286.167 279.5,279.5C 279.5,272.833 279.5,266.167 279.5,259.5 Z"/></g>
<g><path style="opacity:1" fill="#c71cee" d="M 299.5,279.5 C 306.167,279.5 312.833,279.5 319.5,279.5C 319.5,286.167 319.5,292.833 319.5,299.5C 312.833,299.5 306.167,299.5 299.5,299.5C 299.5,292.833 299.5,286.167 299.5,279.5 Z"/></g>
<g><path style="opacity:1" fill="#9912d0" d="M 319.5,279.5 C 326.167,279.5 332.833,279.5 339.5,279.5C 339.5,286.167 339.5,292.833 339.5,299.5C 332.833,299.5 326.167,299.5 319.5,299.5C 319.5,292.833 319.5,286.167 319.5,279.5 Z"/></g>
<g><path style="opacity:1" fill="#55107d" d="M 339.5,279.5 C 346.167,279.5 352.833,279.5 359.5,279.5C 359.5,286.167 359.5,292.833 359.5,299.5C 352.833,299.5 346.167,299.5 339.5,299.5C 339.5,292.833 339.5,286.167 339.5,279.5 Z"/></g>
<g><path style="opacity:1" fill="#571086" d="M 419.5,279.5 C 426.167,279.5 432.833,279.5 439.5,279.5C 446.167,279.5 452.833,279.5 459.5,279.5C 459.5,286.167 459.5,292.833 459.5,299.5C 459.5,306.167 459.5,312.833 459.5,319.5C 452.833,319.5 446.167,319.5 439.5,319.5C 432.833,319.5 426.167,319.5 419.5,319.5C 419.5,306.167 419.5,292.833 419.5,279.5 Z"/></g>
<g><path style="opacity:1" fill="#2e205f" d="M 519.5,299.5 C 519.5,292.833 519.5,286.167 519.5,279.5C 526.167,279.5 532.833,279.5 539.5,279.5C 539.5,286.167 539.5,292.833 539.5,299.5C 532.833,299.5 526.167,299.5 519.5,299.5 Z"/></g>
<g><path style="opacity:1" fill="#3c0a79" d="M 139.5,299.5 C 146.167,299.5 152.833,299.5 159.5,299.5C 159.5,306.167 159.5,312.833 159.5,319.5C 152.833,319.5 146.167,319.5 139.5,319.5C 139.5,312.833 139.5,306.167 139.5,299.5 Z"/></g>
<g><path style="opacity:1" fill="#a307eb" d="M 159.5,299.5 C 166.167,299.5 172.833,299.5 179.5,299.5C 179.5,306.167 179.5,312.833 179.5,319.5C 172.833,319.5 166.167,319.5 159.5,319.5C 159.5,312.833 159.5,306.167 159.5,299.5 Z"/></g>
<g><path style="opacity:1" fill="#6c15b5" d="M 179.5,299.5 C 186.167,299.5 192.833,299.5 199.5,299.5C 199.5,306.167 199.5,312.833 199.5,319.5C 192.833,319.5 186.167,319.5 179.5,319.5C 179.5,312.833 179.5,306.167 179.5,299.5 Z"/></g>
<g><path style="opacity:1" fill="#43136a" d="M 199.5,299.5 C 206.167,299.5 212.833,299.5 219.5,299.5C 219.5,306.167 219.5,312.833 219.5,319.5C 212.833,319.5 206.167,319.5 199.5,319.5C 199.5,312.833 199.5,306.167 199.5,299.5 Z"/></g>
<g><path style="opacity:1" fill="#4c0c72" d="M 219.5,299.5 C 226.167,299.5 232.833,299.5 239.5,299.5C 239.5,306.167 239.5,312.833 239.5,319.5C 232.833,319.5 226.167,319.5 219.5,319.5C 219.5,312.833 219.5,306.167 219.5,299.5 Z"/></g>
<g><path style="opacity:1" fill="#6009a3" d="M 239.5,299.5 C 246.167,299.5 252.833,299.5 259.5,299.5C 259.5,306.167 259.5,312.833 259.5,319.5C 252.833,319.5 246.167,319.5 239.5,319.5C 239.5,312.833 239.5,306.167 239.5,299.5 Z"/></g>
<g><path style="opacity:1" fill="#b11de4" d="M 259.5,299.5 C 266.167,299.5 272.833,299.5 279.5,299.5C 279.5,306.167 279.5,312.833 279.5,319.5C 272.833,319.5 266.167,319.5 259.5,319.5C 259.5,312.833 259.5,306.167 259.5,299.5 Z"/></g>
<g><path style="opacity:1" fill="#d13bf2" d="M 279.5,299.5 C 286.167,299.5 292.833,299.5 299.5,299.5C 299.5,306.167 299.5,312.833 299.5,319.5C 292.833,319.5 286.167,319.5 279.5,319.5C 279.5,312.833 279.5,306.167 279.5,299.5 Z"/></g>
<g><path style="opacity:1" fill="#b62be2" d="M 299.5,299.5 C 306.167,299.5 312.833,299.5 319.5,299.5C 319.5,306.167 319.5,312.833 319.5,319.5C 312.833,319.5 306.167,319.5 299.5,319.5C 299.5,312.833 299.5,306.167 299.5,299.5 Z"/></g>
<g><path style="opacity:1" fill="#6e14a5" d="M 319.5,299.5 C 326.167,299.5 332.833,299.5 339.5,299.5C 339.5,306.167 339.5,312.833 339.5,319.5C 332.833,319.5 326.167,319.5 319.5,319.5C 319.5,312.833 319.5,306.167 319.5,299.5 Z"/></g>
<g><path style="opacity:1" fill="#4c0e6c" d="M 419.5,279.5 C 419.5,292.833 419.5,306.167 419.5,319.5C 419.5,326.167 419.5,332.833 419.5,339.5C 412.833,339.5 406.167,339.5 399.5,339.5C 392.833,339.5 386.167,339.5 379.5,339.5C 379.5,326.167 379.5,312.833 379.5,299.5C 386.167,299.5 392.833,299.5 399.5,299.5C 399.5,292.833 399.5,286.167 399.5,279.5C 406.167,279.5 412.833,279.5 419.5,279.5 Z"/></g>
<g><path style="opacity:1" fill="#651cb8" d="M 159.5,319.5 C 166.167,319.5 172.833,319.5 179.5,319.5C 179.5,326.167 179.5,332.833 179.5,339.5C 172.833,339.5 166.167,339.5 159.5,339.5C 159.5,332.833 159.5,326.167 159.5,319.5 Z"/></g>
<g><path style="opacity:1" fill="#652bc5" d="M 179.5,319.5 C 186.167,319.5 192.833,319.5 199.5,319.5C 199.5,326.167 199.5,332.833 199.5,339.5C 192.833,339.5 186.167,339.5 179.5,339.5C 179.5,332.833 179.5,326.167 179.5,319.5 Z"/></g>
<g><path style="opacity:1" fill="#5a168f" d="M 199.5,319.5 C 206.167,319.5 212.833,319.5 219.5,319.5C 219.5,326.167 219.5,332.833 219.5,339.5C 212.833,339.5 206.167,339.5 199.5,339.5C 199.5,332.833 199.5,326.167 199.5,319.5 Z"/></g>
<g><path style="opacity:1" fill="#560e81" d="M 219.5,319.5 C 226.167,319.5 232.833,319.5 239.5,319.5C 239.5,326.167 239.5,332.833 239.5,339.5C 232.833,339.5 226.167,339.5 219.5,339.5C 219.5,332.833 219.5,326.167 219.5,319.5 Z"/></g>
<g><path style="opacity:1" fill="#8211c1" d="M 239.5,319.5 C 246.167,319.5 252.833,319.5 259.5,319.5C 259.5,326.167 259.5,332.833 259.5,339.5C 252.833,339.5 246.167,339.5 239.5,339.5C 239.5,332.833 239.5,326.167 239.5,319.5 Z"/></g>
<g><path style="opacity:1" fill="#de50f3" d="M 259.5,319.5 C 266.167,319.5 272.833,319.5 279.5,319.5C 279.5,326.167 279.5,332.833 279.5,339.5C 272.833,339.5 266.167,339.5 259.5,339.5C 259.5,332.833 259.5,326.167 259.5,319.5 Z"/></g>
<g><path style="opacity:1" fill="#ea8ef9" d="M 279.5,319.5 C 286.167,319.5 292.833,319.5 299.5,319.5C 299.5,326.167 299.5,332.833 299.5,339.5C 292.833,339.5 286.167,339.5 279.5,339.5C 279.5,332.833 279.5,326.167 279.5,319.5 Z"/></g>
<g><path style="opacity:1" fill="#be3ce2" d="M 299.5,319.5 C 306.167,319.5 312.833,319.5 319.5,319.5C 319.5,326.167 319.5,332.833 319.5,339.5C 312.833,339.5 306.167,339.5 299.5,339.5C 299.5,332.833 299.5,326.167 299.5,319.5 Z"/></g>
<g><path style="opacity:1" fill="#61158b" d="M 319.5,319.5 C 326.167,319.5 332.833,319.5 339.5,319.5C 339.5,326.167 339.5,332.833 339.5,339.5C 332.833,339.5 326.167,339.5 319.5,339.5C 319.5,332.833 319.5,326.167 319.5,319.5 Z"/></g>
<g><path style="opacity:1" fill="#881fba" d="M 419.5,319.5 C 426.167,319.5 432.833,319.5 439.5,319.5C 439.5,326.167 439.5,332.833 439.5,339.5C 432.833,339.5 426.167,339.5 419.5,339.5C 419.5,332.833 419.5,326.167 419.5,319.5 Z"/></g>
<g><path style="opacity:1" fill="#380a5b" d="M 439.5,319.5 C 446.167,319.5 452.833,319.5 459.5,319.5C 459.5,326.167 459.5,332.833 459.5,339.5C 452.833,339.5 446.167,339.5 439.5,339.5C 439.5,332.833 439.5,326.167 439.5,319.5 Z"/></g>
<g><path style="opacity:1" fill="#31145b" d="M 499.5,319.5 C 499.5,326.167 499.5,332.833 499.5,339.5C 492.833,339.5 486.167,339.5 479.5,339.5C 479.5,332.833 479.5,326.167 479.5,319.5C 486.167,319.5 492.833,319.5 499.5,319.5 Z"/></g>
<g><path style="opacity:1" fill="#2f1d5e" d="M 519.5,299.5 C 519.5,312.833 519.5,326.167 519.5,339.5C 512.833,339.5 506.167,339.5 499.5,339.5C 499.5,332.833 499.5,326.167 499.5,319.5C 499.5,312.833 499.5,306.167 499.5,299.5C 506.167,299.5 512.833,299.5 519.5,299.5 Z"/></g>
<g><path style="opacity:1" fill="#302265" d="M 159.5,339.5 C 166.167,339.5 172.833,339.5 179.5,339.5C 179.5,352.833 179.5,366.167 179.5,379.5C 172.833,379.5 166.167,379.5 159.5,379.5C 159.5,366.167 159.5,352.833 159.5,339.5 Z"/></g>
<g><path style="opacity:1" fill="#7e11b8" d="M 219.5,339.5 C 226.167,339.5 232.833,339.5 239.5,339.5C 239.5,346.167 239.5,352.833 239.5,359.5C 232.833,359.5 226.167,359.5 219.5,359.5C 219.5,352.833 219.5,346.167 219.5,339.5 Z"/></g>
<g><path style="opacity:1" fill="#ae20da" d="M 239.5,339.5 C 246.167,339.5 252.833,339.5 259.5,339.5C 259.5,346.167 259.5,352.833 259.5,359.5C 252.833,359.5 246.167,359.5 239.5,359.5C 239.5,352.833 239.5,346.167 239.5,339.5 Z"/></g>
<g><path style="opacity:1" fill="#e778f7" d="M 259.5,339.5 C 266.167,339.5 272.833,339.5 279.5,339.5C 279.5,346.167 279.5,352.833 279.5,359.5C 272.833,359.5 266.167,359.5 259.5,359.5C 259.5,352.833 259.5,346.167 259.5,339.5 Z"/></g>
<g><path style="opacity:1" fill="#b63ed9" d="M 299.5,339.5 C 306.167,339.5 312.833,339.5 319.5,339.5C 319.5,346.167 319.5,352.833 319.5,359.5C 312.833,359.5 306.167,359.5 299.5,359.5C 299.5,352.833 299.5,346.167 299.5,339.5 Z"/></g>
<g><path style="opacity:1" fill="#57137a" d="M 319.5,339.5 C 326.167,339.5 332.833,339.5 339.5,339.5C 339.5,346.167 339.5,352.833 339.5,359.5C 332.833,359.5 326.167,359.5 319.5,359.5C 319.5,352.833 319.5,346.167 319.5,339.5 Z"/></g>
<g><path style="opacity:1" fill="#641390" d="M 379.5,339.5 C 386.167,339.5 392.833,339.5 399.5,339.5C 399.5,346.167 399.5,352.833 399.5,359.5C 392.833,359.5 386.167,359.5 379.5,359.5C 379.5,352.833 379.5,346.167 379.5,339.5 Z"/></g>
<g><path style="opacity:1" fill="#9d1fce" d="M 399.5,339.5 C 406.167,339.5 412.833,339.5 419.5,339.5C 419.5,346.167 419.5,352.833 419.5,359.5C 412.833,359.5 406.167,359.5 399.5,359.5C 399.5,352.833 399.5,346.167 399.5,339.5 Z"/></g>
<g><path style="opacity:1" fill="#5d1484" d="M 419.5,339.5 C 426.167,339.5 432.833,339.5 439.5,339.5C 439.5,346.167 439.5,352.833 439.5,359.5C 432.833,359.5 426.167,359.5 419.5,359.5C 419.5,352.833 419.5,346.167 419.5,339.5 Z"/></g>
<g><path style="opacity:1" fill="#31034a" d="M 439.5,339.5 C 446.167,339.5 452.833,339.5 459.5,339.5C 459.5,346.167 459.5,352.833 459.5,359.5C 452.833,359.5 446.167,359.5 439.5,359.5C 439.5,352.833 439.5,346.167 439.5,339.5 Z"/></g>
<g><path style="opacity:1" fill="#360455" d="M 459.5,339.5 C 466.167,339.5 472.833,339.5 479.5,339.5C 486.167,339.5 492.833,339.5 499.5,339.5C 506.167,339.5 512.833,339.5 519.5,339.5C 519.5,346.167 519.5,352.833 519.5,359.5C 512.833,359.5 506.167,359.5 499.5,359.5C 499.5,372.833 499.5,386.167 499.5,399.5C 492.833,399.5 486.167,399.5 479.5,399.5C 479.5,392.833 479.5,386.167 479.5,379.5C 472.833,379.5 466.167,379.5 459.5,379.5C 459.5,392.833 459.5,406.167 459.5,419.5C 452.833,419.5 446.167,419.5 439.5,419.5C 439.5,412.833 439.5,406.167 439.5,399.5C 439.5,392.833 439.5,386.167 439.5,379.5C 439.5,372.833 439.5,366.167 439.5,359.5C 446.167,359.5 452.833,359.5 459.5,359.5C 459.5,352.833 459.5,346.167 459.5,339.5 Z"/></g>
<g><path style="opacity:1" fill="#3e2285" d="M 179.5,339.5 C 186.167,339.5 192.833,339.5 199.5,339.5C 199.5,352.833 199.5,366.167 199.5,379.5C 192.833,379.5 186.167,379.5 179.5,379.5C 179.5,366.167 179.5,352.833 179.5,339.5 Z"/></g>
<g><path style="opacity:1" fill="#7119c6" d="M 199.5,339.5 C 206.167,339.5 212.833,339.5 219.5,339.5C 219.5,346.167 219.5,352.833 219.5,359.5C 219.5,366.167 219.5,372.833 219.5,379.5C 212.833,379.5 206.167,379.5 199.5,379.5C 199.5,366.167 199.5,352.833 199.5,339.5 Z"/></g>
<g><path style="opacity:1" fill="#d042ec" d="M 239.5,359.5 C 246.167,359.5 252.833,359.5 259.5,359.5C 259.5,366.167 259.5,372.833 259.5,379.5C 252.833,379.5 246.167,379.5 239.5,379.5C 239.5,372.833 239.5,366.167 239.5,359.5 Z"/></g>
<g><path style="opacity:1" fill="#ec93f9" d="M 259.5,359.5 C 266.167,359.5 272.833,359.5 279.5,359.5C 279.5,366.167 279.5,372.833 279.5,379.5C 272.833,379.5 266.167,379.5 259.5,379.5C 259.5,372.833 259.5,366.167 259.5,359.5 Z"/></g>
<g><path style="opacity:1" fill="#eca7f8" d="M 279.5,339.5 C 286.167,339.5 292.833,339.5 299.5,339.5C 299.5,346.167 299.5,352.833 299.5,359.5C 299.5,366.167 299.5,372.833 299.5,379.5C 292.833,379.5 286.167,379.5 279.5,379.5C 279.5,372.833 279.5,366.167 279.5,359.5C 279.5,352.833 279.5,346.167 279.5,339.5 Z"/></g>
<g><path style="opacity:1" fill="#3a025b" d="M 319.5,359.5 C 326.167,359.5 332.833,359.5 339.5,359.5C 339.5,366.167 339.5,372.833 339.5,379.5C 339.5,386.167 339.5,392.833 339.5,399.5C 332.833,399.5 326.167,399.5 319.5,399.5C 319.5,386.167 319.5,372.833 319.5,359.5 Z"/></g>
<g><path style="opacity:1" fill="#57117e" d="M 379.5,359.5 C 379.5,366.167 379.5,372.833 379.5,379.5C 372.833,379.5 366.167,379.5 359.5,379.5C 359.5,372.833 359.5,366.167 359.5,359.5C 366.167,359.5 372.833,359.5 379.5,359.5 Z"/></g>
<g><path style="opacity:1" fill="#8f19c1" d="M 379.5,359.5 C 386.167,359.5 392.833,359.5 399.5,359.5C 399.5,366.167 399.5,372.833 399.5,379.5C 392.833,379.5 386.167,379.5 379.5,379.5C 379.5,372.833 379.5,366.167 379.5,359.5 Z"/></g>
<g><path style="opacity:1" fill="#b61fde" d="M 399.5,359.5 C 406.167,359.5 412.833,359.5 419.5,359.5C 419.5,366.167 419.5,372.833 419.5,379.5C 412.833,379.5 406.167,379.5 399.5,379.5C 399.5,372.833 399.5,366.167 399.5,359.5 Z"/></g>
<g><path style="opacity:1" fill="#7d19ae" d="M 419.5,359.5 C 426.167,359.5 432.833,359.5 439.5,359.5C 439.5,366.167 439.5,372.833 439.5,379.5C 432.833,379.5 426.167,379.5 419.5,379.5C 419.5,372.833 419.5,366.167 419.5,359.5 Z"/></g>
<g><path style="opacity:1" fill="#181932" d="M 79.5,439.5 C 66.1667,439.5 52.8333,439.5 39.5,439.5C 39.5,446.167 39.5,452.833 39.5,459.5C 26.1667,459.5 12.8333,459.5 -0.5,459.5C -0.5,446.167 -0.5,432.833 -0.5,419.5C 6.16667,419.5 12.8333,419.5 19.5,419.5C 19.5,392.833 19.5,366.167 19.5,339.5C 32.8333,339.5 46.1667,339.5 59.5,339.5C 59.5,366.167 59.5,392.833 59.5,419.5C 66.1667,419.5 72.8333,419.5 79.5,419.5C 79.5,426.167 79.5,432.833 79.5,439.5 Z"/></g>
<g><path style="opacity:1" fill="#3b1272" d="M 179.5,379.5 C 186.167,379.5 192.833,379.5 199.5,379.5C 199.5,386.167 199.5,392.833 199.5,399.5C 192.833,399.5 186.167,399.5 179.5,399.5C 179.5,392.833 179.5,386.167 179.5,379.5 Z"/></g>
<g><path style="opacity:1" fill="#5b0ca6" d="M 199.5,379.5 C 206.167,379.5 212.833,379.5 219.5,379.5C 219.5,386.167 219.5,392.833 219.5,399.5C 212.833,399.5 206.167,399.5 199.5,399.5C 199.5,392.833 199.5,386.167 199.5,379.5 Z"/></g>
<g><path style="opacity:1" fill="#af1fda" d="M 219.5,359.5 C 226.167,359.5 232.833,359.5 239.5,359.5C 239.5,366.167 239.5,372.833 239.5,379.5C 239.5,386.167 239.5,392.833 239.5,399.5C 232.833,399.5 226.167,399.5 219.5,399.5C 219.5,392.833 219.5,386.167 219.5,379.5C 219.5,372.833 219.5,366.167 219.5,359.5 Z"/></g>
<g><path style="opacity:1" fill="#e691f6" d="M 239.5,379.5 C 246.167,379.5 252.833,379.5 259.5,379.5C 259.5,386.167 259.5,392.833 259.5,399.5C 252.833,399.5 246.167,399.5 239.5,399.5C 239.5,392.833 239.5,386.167 239.5,379.5 Z"/></g>
<g><path style="opacity:1" fill="#efb3f9" d="M 259.5,379.5 C 266.167,379.5 272.833,379.5 279.5,379.5C 279.5,386.167 279.5,392.833 279.5,399.5C 272.833,399.5 266.167,399.5 259.5,399.5C 259.5,392.833 259.5,386.167 259.5,379.5 Z"/></g>
<g><path style="opacity:1" fill="#e898f5" d="M 279.5,379.5 C 286.167,379.5 292.833,379.5 299.5,379.5C 299.5,386.167 299.5,392.833 299.5,399.5C 292.833,399.5 286.167,399.5 279.5,399.5C 279.5,392.833 279.5,386.167 279.5,379.5 Z"/></g>
<g><path style="opacity:1" fill="#9327be" d="M 299.5,359.5 C 306.167,359.5 312.833,359.5 319.5,359.5C 319.5,372.833 319.5,386.167 319.5,399.5C 319.5,406.167 319.5,412.833 319.5,419.5C 312.833,419.5 306.167,419.5 299.5,419.5C 299.5,412.833 299.5,406.167 299.5,399.5C 299.5,392.833 299.5,386.167 299.5,379.5C 299.5,372.833 299.5,366.167 299.5,359.5 Z"/></g>
<g><path style="opacity:1" fill="#511173" d="M 339.5,379.5 C 346.167,379.5 352.833,379.5 359.5,379.5C 359.5,386.167 359.5,392.833 359.5,399.5C 352.833,399.5 346.167,399.5 339.5,399.5C 339.5,392.833 339.5,386.167 339.5,379.5 Z"/></g>
<g><path style="opacity:1" fill="#7919ac" d="M 359.5,379.5 C 366.167,379.5 372.833,379.5 379.5,379.5C 379.5,386.167 379.5,392.833 379.5,399.5C 372.833,399.5 366.167,399.5 359.5,399.5C 359.5,392.833 359.5,386.167 359.5,379.5 Z"/></g>
<g><path style="opacity:1" fill="#cb34ec" d="M 379.5,379.5 C 386.167,379.5 392.833,379.5 399.5,379.5C 406.167,379.5 412.833,379.5 419.5,379.5C 419.5,386.167 419.5,392.833 419.5,399.5C 412.833,399.5 406.167,399.5 399.5,399.5C 392.833,399.5 386.167,399.5 379.5,399.5C 379.5,392.833 379.5,386.167 379.5,379.5 Z"/></g>
<g><path style="opacity:1" fill="#7b14b9" d="M 419.5,379.5 C 426.167,379.5 432.833,379.5 439.5,379.5C 439.5,386.167 439.5,392.833 439.5,399.5C 432.833,399.5 426.167,399.5 419.5,399.5C 419.5,392.833 419.5,386.167 419.5,379.5 Z"/></g>
<g><path style="opacity:1" fill="#181932" d="M 639.5,339.5 C 639.5,379.5 639.5,419.5 639.5,459.5C 626.167,459.5 612.833,459.5 599.5,459.5C 599.5,446.167 599.5,432.833 599.5,419.5C 606.167,419.5 612.833,419.5 619.5,419.5C 619.5,392.833 619.5,366.167 619.5,339.5C 626.167,339.5 632.833,339.5 639.5,339.5 Z"/></g>
<g><path style="opacity:1" fill="#2c1356" d="M 179.5,399.5 C 186.167,399.5 192.833,399.5 199.5,399.5C 199.5,406.167 199.5,412.833 199.5,419.5C 192.833,419.5 186.167,419.5 179.5,419.5C 179.5,412.833 179.5,406.167 179.5,399.5 Z"/></g>
<g><path style="opacity:1" fill="#3a0769" d="M 199.5,399.5 C 206.167,399.5 212.833,399.5 219.5,399.5C 219.5,406.167 219.5,412.833 219.5,419.5C 212.833,419.5 206.167,419.5 199.5,419.5C 199.5,412.833 199.5,406.167 199.5,399.5 Z"/></g>
<g><path style="opacity:1" fill="#a831df" d="M 219.5,399.5 C 226.167,399.5 232.833,399.5 239.5,399.5C 239.5,406.167 239.5,412.833 239.5,419.5C 232.833,419.5 226.167,419.5 219.5,419.5C 219.5,412.833 219.5,406.167 219.5,399.5 Z"/></g>
<g><path style="opacity:1" fill="#f3bafb" d="M 239.5,399.5 C 246.167,399.5 252.833,399.5 259.5,399.5C 266.167,399.5 272.833,399.5 279.5,399.5C 279.5,406.167 279.5,412.833 279.5,419.5C 266.167,419.5 252.833,419.5 239.5,419.5C 239.5,412.833 239.5,406.167 239.5,399.5 Z"/></g>
<g><path style="opacity:1" fill="#e570f4" d="M 279.5,399.5 C 286.167,399.5 292.833,399.5 299.5,399.5C 299.5,406.167 299.5,412.833 299.5,419.5C 292.833,419.5 286.167,419.5 279.5,419.5C 279.5,412.833 279.5,406.167 279.5,399.5 Z"/></g>
<g><path style="opacity:1" fill="#5b147d" d="M 319.5,399.5 C 326.167,399.5 332.833,399.5 339.5,399.5C 339.5,406.167 339.5,412.833 339.5,419.5C 332.833,419.5 326.167,419.5 319.5,419.5C 319.5,412.833 319.5,406.167 319.5,399.5 Z"/></g>
<g><path style="opacity:1" fill="#6c169c" d="M 339.5,399.5 C 346.167,399.5 352.833,399.5 359.5,399.5C 359.5,406.167 359.5,412.833 359.5,419.5C 352.833,419.5 346.167,419.5 339.5,419.5C 339.5,412.833 339.5,406.167 339.5,399.5 Z"/></g>
<g><path style="opacity:1" fill="#bd35e4" d="M 359.5,399.5 C 366.167,399.5 372.833,399.5 379.5,399.5C 379.5,406.167 379.5,412.833 379.5,419.5C 372.833,419.5 366.167,419.5 359.5,419.5C 359.5,412.833 359.5,406.167 359.5,399.5 Z"/></g>
<g><path style="opacity:1" fill="#ec99f7" d="M 399.5,399.5 C 406.167,399.5 412.833,399.5 419.5,399.5C 419.5,406.167 419.5,412.833 419.5,419.5C 412.833,419.5 406.167,419.5 399.5,419.5C 399.5,412.833 399.5,406.167 399.5,399.5 Z"/></g>
<g><path style="opacity:1" fill="#9029c3" d="M 419.5,399.5 C 426.167,399.5 432.833,399.5 439.5,399.5C 439.5,406.167 439.5,412.833 439.5,419.5C 432.833,419.5 426.167,419.5 419.5,419.5C 419.5,412.833 419.5,406.167 419.5,399.5 Z"/></g>
<g><path style="opacity:1" fill="#27013c" d="M 479.5,399.5 C 479.5,412.833 479.5,426.167 479.5,439.5C 472.833,439.5 466.167,439.5 459.5,439.5C 459.5,432.833 459.5,426.167 459.5,419.5C 459.5,406.167 459.5,392.833 459.5,379.5C 466.167,379.5 472.833,379.5 479.5,379.5C 479.5,386.167 479.5,392.833 479.5,399.5 Z"/></g>
<g><path style="opacity:1" fill="#39095c" d="M 179.5,419.5 C 186.167,419.5 192.833,419.5 199.5,419.5C 206.167,419.5 212.833,419.5 219.5,419.5C 219.5,426.167 219.5,432.833 219.5,439.5C 219.5,446.167 219.5,452.833 219.5,459.5C 212.833,459.5 206.167,459.5 199.5,459.5C 199.5,452.833 199.5,446.167 199.5,439.5C 192.833,439.5 186.167,439.5 179.5,439.5C 179.5,432.833 179.5,426.167 179.5,419.5 Z"/></g>
<g><path style="opacity:1" fill="#6f1aaa" d="M 219.5,419.5 C 226.167,419.5 232.833,419.5 239.5,419.5C 239.5,426.167 239.5,432.833 239.5,439.5C 232.833,439.5 226.167,439.5 219.5,439.5C 219.5,432.833 219.5,426.167 219.5,419.5 Z"/></g>
<g><path style="opacity:1" fill="#ea96f8" d="M 239.5,419.5 C 252.833,419.5 266.167,419.5 279.5,419.5C 279.5,426.167 279.5,432.833 279.5,439.5C 266.167,439.5 252.833,439.5 239.5,439.5C 239.5,432.833 239.5,426.167 239.5,419.5 Z"/></g>
<g><path style="opacity:1" fill="#c839e2" d="M 299.5,419.5 C 306.167,419.5 312.833,419.5 319.5,419.5C 319.5,426.167 319.5,432.833 319.5,439.5C 312.833,439.5 306.167,439.5 299.5,439.5C 299.5,432.833 299.5,426.167 299.5,419.5 Z"/></g>
<g><path style="opacity:1" fill="#a129c7" d="M 319.5,419.5 C 326.167,419.5 332.833,419.5 339.5,419.5C 339.5,426.167 339.5,432.833 339.5,439.5C 332.833,439.5 326.167,439.5 319.5,439.5C 319.5,432.833 319.5,426.167 319.5,419.5 Z"/></g>
<g><path style="opacity:1" fill="#ba27df" d="M 339.5,419.5 C 346.167,419.5 352.833,419.5 359.5,419.5C 359.5,426.167 359.5,432.833 359.5,439.5C 352.833,439.5 346.167,439.5 339.5,439.5C 339.5,432.833 339.5,426.167 339.5,419.5 Z"/></g>
<g><path style="opacity:1" fill="#dd4bf4" d="M 359.5,419.5 C 366.167,419.5 372.833,419.5 379.5,419.5C 379.5,426.167 379.5,432.833 379.5,439.5C 372.833,439.5 366.167,439.5 359.5,439.5C 359.5,432.833 359.5,426.167 359.5,419.5 Z"/></g>
<g><path style="opacity:1" fill="#ed89f8" d="M 379.5,399.5 C 386.167,399.5 392.833,399.5 399.5,399.5C 399.5,406.167 399.5,412.833 399.5,419.5C 399.5,426.167 399.5,432.833 399.5,439.5C 392.833,439.5 386.167,439.5 379.5,439.5C 379.5,432.833 379.5,426.167 379.5,419.5C 379.5,412.833 379.5,406.167 379.5,399.5 Z"/></g>
<g><path style="opacity:1" fill="#e073ee" d="M 399.5,419.5 C 406.167,419.5 412.833,419.5 419.5,419.5C 419.5,426.167 419.5,432.833 419.5,439.5C 412.833,439.5 406.167,439.5 399.5,439.5C 399.5,432.833 399.5,426.167 399.5,419.5 Z"/></g>
<g><path style="opacity:1" fill="#721ca3" d="M 419.5,419.5 C 426.167,419.5 432.833,419.5 439.5,419.5C 439.5,426.167 439.5,432.833 439.5,439.5C 432.833,439.5 426.167,439.5 419.5,439.5C 419.5,432.833 419.5,426.167 419.5,419.5 Z"/></g>
<g><path style="opacity:1" fill="#32074d" d="M 439.5,419.5 C 446.167,419.5 452.833,419.5 459.5,419.5C 459.5,426.167 459.5,432.833 459.5,439.5C 452.833,439.5 446.167,439.5 439.5,439.5C 439.5,432.833 439.5,426.167 439.5,419.5 Z"/></g>
<g><path style="opacity:1" fill="#19182e" d="M 79.5,439.5 C 79.5,446.167 79.5,452.833 79.5,459.5C 72.8333,459.5 66.1667,459.5 59.5,459.5C 59.5,466.167 59.5,472.833 59.5,479.5C 52.8333,479.5 46.1667,479.5 39.5,479.5C 39.5,486.167 39.5,492.833 39.5,499.5C 26.1667,499.5 12.8333,499.5 -0.5,499.5C -0.5,486.167 -0.5,472.833 -0.5,459.5C 12.8333,459.5 26.1667,459.5 39.5,459.5C 39.5,452.833 39.5,446.167 39.5,439.5C 52.8333,439.5 66.1667,439.5 79.5,439.5 Z"/></g>
<g><path style="opacity:1" fill="#1a172e" d="M 139.5,439.5 C 146.167,439.5 152.833,439.5 159.5,439.5C 159.5,446.167 159.5,452.833 159.5,459.5C 152.833,459.5 146.167,459.5 139.5,459.5C 132.833,459.5 126.167,459.5 119.5,459.5C 119.5,466.167 119.5,472.833 119.5,479.5C 119.5,492.833 119.5,506.167 119.5,519.5C 112.833,519.5 106.167,519.5 99.5,519.5C 99.5,512.833 99.5,506.167 99.5,499.5C 79.5,499.5 59.5,499.5 39.5,499.5C 39.5,492.833 39.5,486.167 39.5,479.5C 46.1667,479.5 52.8333,479.5 59.5,479.5C 59.5,472.833 59.5,466.167 59.5,459.5C 66.1667,459.5 72.8333,459.5 79.5,459.5C 86.1667,459.5 92.8333,459.5 99.5,459.5C 99.5,452.833 99.5,446.167 99.5,439.5C 112.833,439.5 126.167,439.5 139.5,439.5 Z"/></g>
<g><path style="opacity:1" fill="#1d1333" d="M 159.5,379.5 C 166.167,379.5 172.833,379.5 179.5,379.5C 179.5,386.167 179.5,392.833 179.5,399.5C 179.5,406.167 179.5,412.833 179.5,419.5C 179.5,426.167 179.5,432.833 179.5,439.5C 179.5,446.167 179.5,452.833 179.5,459.5C 172.833,459.5 166.167,459.5 159.5,459.5C 159.5,452.833 159.5,446.167 159.5,439.5C 159.5,419.5 159.5,399.5 159.5,379.5 Z"/></g>
<g><path style="opacity:1" fill="#2a194f" d="M 179.5,439.5 C 186.167,439.5 192.833,439.5 199.5,439.5C 199.5,446.167 199.5,452.833 199.5,459.5C 192.833,459.5 186.167,459.5 179.5,459.5C 179.5,452.833 179.5,446.167 179.5,439.5 Z"/></g>
<g><path style="opacity:1" fill="#561186" d="M 219.5,439.5 C 226.167,439.5 232.833,439.5 239.5,439.5C 239.5,446.167 239.5,452.833 239.5,459.5C 232.833,459.5 226.167,459.5 219.5,459.5C 219.5,452.833 219.5,446.167 219.5,439.5 Z"/></g>
<g><path style="opacity:1" fill="#f2bafa" d="M 239.5,439.5 C 252.833,439.5 266.167,439.5 279.5,439.5C 279.5,446.167 279.5,452.833 279.5,459.5C 272.833,459.5 266.167,459.5 259.5,459.5C 252.833,459.5 246.167,459.5 239.5,459.5C 239.5,452.833 239.5,446.167 239.5,439.5 Z"/></g>
<g><path style="opacity:1" fill="#e759f6" d="M 279.5,419.5 C 286.167,419.5 292.833,419.5 299.5,419.5C 299.5,426.167 299.5,432.833 299.5,439.5C 299.5,446.167 299.5,452.833 299.5,459.5C 292.833,459.5 286.167,459.5 279.5,459.5C 279.5,452.833 279.5,446.167 279.5,439.5C 279.5,432.833 279.5,426.167 279.5,419.5 Z"/></g>
<g><path style="opacity:1" fill="#db43f1" d="M 299.5,439.5 C 306.167,439.5 312.833,439.5 319.5,439.5C 326.167,439.5 332.833,439.5 339.5,439.5C 346.167,439.5 352.833,439.5 359.5,439.5C 359.5,446.167 359.5,452.833 359.5,459.5C 352.833,459.5 346.167,459.5 339.5,459.5C 326.167,459.5 312.833,459.5 299.5,459.5C 299.5,452.833 299.5,446.167 299.5,439.5 Z"/></g>
<g><path style="opacity:1" fill="#eb7cf8" d="M 359.5,439.5 C 366.167,439.5 372.833,439.5 379.5,439.5C 379.5,446.167 379.5,452.833 379.5,459.5C 372.833,459.5 366.167,459.5 359.5,459.5C 359.5,452.833 359.5,446.167 359.5,439.5 Z"/></g>
<g><path style="opacity:1" fill="#f8d4fc" d="M 379.5,439.5 C 386.167,439.5 392.833,439.5 399.5,439.5C 399.5,446.167 399.5,452.833 399.5,459.5C 392.833,459.5 386.167,459.5 379.5,459.5C 379.5,452.833 379.5,446.167 379.5,439.5 Z"/></g>
<g><path style="opacity:1" fill="#be52d2" d="M 399.5,439.5 C 406.167,439.5 412.833,439.5 419.5,439.5C 419.5,446.167 419.5,452.833 419.5,459.5C 412.833,459.5 406.167,459.5 399.5,459.5C 399.5,452.833 399.5,446.167 399.5,439.5 Z"/></g>
<g><path style="opacity:1" fill="#4a106b" d="M 419.5,439.5 C 426.167,439.5 432.833,439.5 439.5,439.5C 439.5,446.167 439.5,452.833 439.5,459.5C 432.833,459.5 426.167,459.5 419.5,459.5C 419.5,452.833 419.5,446.167 419.5,439.5 Z"/></g>
<g><path style="opacity:1" fill="#29063e" d="M 439.5,439.5 C 446.167,439.5 452.833,439.5 459.5,439.5C 459.5,446.167 459.5,452.833 459.5,459.5C 452.833,459.5 446.167,459.5 439.5,459.5C 439.5,452.833 439.5,446.167 439.5,439.5 Z"/></g>
<g><path style="opacity:1" fill="#1e1535" d="M 139.5,459.5 C 139.5,466.167 139.5,472.833 139.5,479.5C 132.833,479.5 126.167,479.5 119.5,479.5C 119.5,472.833 119.5,466.167 119.5,459.5C 126.167,459.5 132.833,459.5 139.5,459.5 Z"/></g>
<g><path style="opacity:1" fill="#2c1042" d="M 139.5,459.5 C 146.167,459.5 152.833,459.5 159.5,459.5C 166.167,459.5 172.833,459.5 179.5,459.5C 186.167,459.5 192.833,459.5 199.5,459.5C 199.5,466.167 199.5,472.833 199.5,479.5C 179.5,479.5 159.5,479.5 139.5,479.5C 139.5,472.833 139.5,466.167 139.5,459.5 Z"/></g>
<g><path style="opacity:1" fill="#300849" d="M 199.5,459.5 C 206.167,459.5 212.833,459.5 219.5,459.5C 219.5,466.167 219.5,472.833 219.5,479.5C 212.833,479.5 206.167,479.5 199.5,479.5C 199.5,472.833 199.5,466.167 199.5,459.5 Z"/></g>
<g><path style="opacity:1" fill="#440f67" d="M 219.5,459.5 C 226.167,459.5 232.833,459.5 239.5,459.5C 239.5,466.167 239.5,472.833 239.5,479.5C 232.833,479.5 226.167,479.5 219.5,479.5C 219.5,472.833 219.5,466.167 219.5,459.5 Z"/></g>
<g><path style="opacity:1" fill="#df8aef" d="M 239.5,459.5 C 246.167,459.5 252.833,459.5 259.5,459.5C 259.5,466.167 259.5,472.833 259.5,479.5C 252.833,479.5 246.167,479.5 239.5,479.5C 239.5,472.833 239.5,466.167 239.5,459.5 Z"/></g>
<g><path style="opacity:1" fill="#e570f6" d="M 279.5,459.5 C 286.167,459.5 292.833,459.5 299.5,459.5C 299.5,466.167 299.5,472.833 299.5,479.5C 292.833,479.5 286.167,479.5 279.5,479.5C 279.5,472.833 279.5,466.167 279.5,459.5 Z"/></g>
<g><path style="opacity:1" fill="#e052f5" d="M 299.5,459.5 C 312.833,459.5 326.167,459.5 339.5,459.5C 339.5,466.167 339.5,472.833 339.5,479.5C 326.167,479.5 312.833,479.5 299.5,479.5C 299.5,472.833 299.5,466.167 299.5,459.5 Z"/></g>
<g><path style="opacity:1" fill="#e77bf6" d="M 339.5,459.5 C 346.167,459.5 352.833,459.5 359.5,459.5C 359.5,466.167 359.5,472.833 359.5,479.5C 352.833,479.5 346.167,479.5 339.5,479.5C 339.5,472.833 339.5,466.167 339.5,459.5 Z"/></g>
<g><path style="opacity:1" fill="#efc2f7" d="M 359.5,459.5 C 366.167,459.5 372.833,459.5 379.5,459.5C 379.5,466.167 379.5,472.833 379.5,479.5C 372.833,479.5 366.167,479.5 359.5,479.5C 359.5,472.833 359.5,466.167 359.5,459.5 Z"/></g>
<g><path style="opacity:1" fill="#c671d9" d="M 379.5,459.5 C 386.167,459.5 392.833,459.5 399.5,459.5C 399.5,466.167 399.5,472.833 399.5,479.5C 392.833,479.5 386.167,479.5 379.5,479.5C 379.5,472.833 379.5,466.167 379.5,459.5 Z"/></g>
<g><path style="opacity:1" fill="#612186" d="M 399.5,459.5 C 406.167,459.5 412.833,459.5 419.5,459.5C 419.5,466.167 419.5,472.833 419.5,479.5C 412.833,479.5 406.167,479.5 399.5,479.5C 399.5,472.833 399.5,466.167 399.5,459.5 Z"/></g>
<g><path style="opacity:1" fill="#370a52" d="M 419.5,459.5 C 426.167,459.5 432.833,459.5 439.5,459.5C 439.5,466.167 439.5,472.833 439.5,479.5C 432.833,479.5 426.167,479.5 419.5,479.5C 419.5,472.833 419.5,466.167 419.5,459.5 Z"/></g>
<g><path style="opacity:1" fill="#210332" d="M 459.5,439.5 C 466.167,439.5 472.833,439.5 479.5,439.5C 479.5,446.167 479.5,452.833 479.5,459.5C 479.5,466.167 479.5,472.833 479.5,479.5C 479.5,486.167 479.5,492.833 479.5,499.5C 472.833,499.5 466.167,499.5 459.5,499.5C 459.5,506.167 459.5,512.833 459.5,519.5C 452.833,519.5 446.167,519.5 439.5,519.5C 439.5,506.167 439.5,492.833 439.5,479.5C 439.5,472.833 439.5,466.167 439.5,459.5C 446.167,459.5 452.833,459.5 459.5,459.5C 459.5,452.833 459.5,446.167 459.5,439.5 Z"/></g>
<g><path style="opacity:1" fill="#1e1434" d="M 479.5,459.5 C 492.833,459.5 506.167,459.5 519.5,459.5C 519.5,466.167 519.5,472.833 519.5,479.5C 512.833,479.5 506.167,479.5 499.5,479.5C 492.833,479.5 486.167,479.5 479.5,479.5C 479.5,472.833 479.5,466.167 479.5,459.5 Z"/></g>
<g><path style="opacity:1" fill="#28133c" d="M 119.5,479.5 C 126.167,479.5 132.833,479.5 139.5,479.5C 139.5,492.833 139.5,506.167 139.5,519.5C 132.833,519.5 126.167,519.5 119.5,519.5C 119.5,506.167 119.5,492.833 119.5,479.5 Z"/></g>
<g><path style="opacity:1" fill="#451360" d="M 219.5,479.5 C 226.167,479.5 232.833,479.5 239.5,479.5C 239.5,486.167 239.5,492.833 239.5,499.5C 232.833,499.5 226.167,499.5 219.5,499.5C 219.5,492.833 219.5,486.167 219.5,479.5 Z"/></g>
<g><path style="opacity:1" fill="#d48ee1" d="M 239.5,479.5 C 246.167,479.5 252.833,479.5 259.5,479.5C 259.5,486.167 259.5,492.833 259.5,499.5C 252.833,499.5 246.167,499.5 239.5,499.5C 239.5,492.833 239.5,486.167 239.5,479.5 Z"/></g>
<g><path style="opacity:1" fill="#f2c6f9" d="M 259.5,459.5 C 266.167,459.5 272.833,459.5 279.5,459.5C 279.5,466.167 279.5,472.833 279.5,479.5C 279.5,486.167 279.5,492.833 279.5,499.5C 272.833,499.5 266.167,499.5 259.5,499.5C 259.5,492.833 259.5,486.167 259.5,479.5C 259.5,472.833 259.5,466.167 259.5,459.5 Z"/></g>
<g><path style="opacity:1" fill="#e45cf1" d="M 299.5,479.5 C 312.833,479.5 326.167,479.5 339.5,479.5C 339.5,486.167 339.5,492.833 339.5,499.5C 326.167,499.5 312.833,499.5 299.5,499.5C 299.5,492.833 299.5,486.167 299.5,479.5 Z"/></g>
<g><path style="opacity:1" fill="#d66ce9" d="M 339.5,479.5 C 346.167,479.5 352.833,479.5 359.5,479.5C 359.5,486.167 359.5,492.833 359.5,499.5C 352.833,499.5 346.167,499.5 339.5,499.5C 339.5,492.833 339.5,486.167 339.5,479.5 Z"/></g>
<g><path style="opacity:1" fill="#ca83db" d="M 359.5,479.5 C 366.167,479.5 372.833,479.5 379.5,479.5C 379.5,486.167 379.5,492.833 379.5,499.5C 372.833,499.5 366.167,499.5 359.5,499.5C 359.5,492.833 359.5,486.167 359.5,479.5 Z"/></g>
<g><path style="opacity:1" fill="#793d92" d="M 379.5,479.5 C 386.167,479.5 392.833,479.5 399.5,479.5C 399.5,486.167 399.5,492.833 399.5,499.5C 392.833,499.5 386.167,499.5 379.5,499.5C 379.5,492.833 379.5,486.167 379.5,479.5 Z"/></g>
<g><path style="opacity:1" fill="#3d1457" d="M 399.5,479.5 C 406.167,479.5 412.833,479.5 419.5,479.5C 419.5,486.167 419.5,492.833 419.5,499.5C 412.833,499.5 406.167,499.5 399.5,499.5C 399.5,492.833 399.5,486.167 399.5,479.5 Z"/></g>
<g><path style="opacity:1" fill="#28113d" d="M 479.5,479.5 C 486.167,479.5 492.833,479.5 499.5,479.5C 499.5,506.167 499.5,532.833 499.5,559.5C 499.5,572.833 499.5,586.167 499.5,599.5C 492.833,599.5 486.167,599.5 479.5,599.5C 472.833,599.5 466.167,599.5 459.5,599.5C 459.5,572.833 459.5,546.167 459.5,519.5C 459.5,512.833 459.5,506.167 459.5,499.5C 466.167,499.5 472.833,499.5 479.5,499.5C 479.5,492.833 479.5,486.167 479.5,479.5 Z"/></g>
<g><path style="opacity:1" fill="#18172c" d="M 599.5,459.5 C 612.833,459.5 626.167,459.5 639.5,459.5C 639.5,472.833 639.5,486.167 639.5,499.5C 612.833,499.5 586.167,499.5 559.5,499.5C 559.5,506.167 559.5,512.833 559.5,519.5C 552.833,519.5 546.167,519.5 539.5,519.5C 539.5,506.167 539.5,492.833 539.5,479.5C 539.5,472.833 539.5,466.167 539.5,459.5C 546.167,459.5 552.833,459.5 559.5,459.5C 559.5,466.167 559.5,472.833 559.5,479.5C 566.167,479.5 572.833,479.5 579.5,479.5C 579.5,472.833 579.5,466.167 579.5,459.5C 586.167,459.5 592.833,459.5 599.5,459.5 Z"/></g>
<g><path style="opacity:1" fill="#1a1628" d="M -0.5,499.5 C 12.8333,499.5 26.1667,499.5 39.5,499.5C 59.5,499.5 79.5,499.5 99.5,499.5C 99.5,506.167 99.5,512.833 99.5,519.5C 106.167,519.5 112.833,519.5 119.5,519.5C 119.5,532.833 119.5,546.167 119.5,559.5C 126.167,559.5 132.833,559.5 139.5,559.5C 139.5,566.167 139.5,572.833 139.5,579.5C 119.5,579.5 99.5,579.5 79.5,579.5C 79.5,572.833 79.5,566.167 79.5,559.5C 66.1667,559.5 52.8333,559.5 39.5,559.5C 39.5,566.167 39.5,572.833 39.5,579.5C 26.1667,579.5 12.8333,579.5 -0.5,579.5C -0.5,552.833 -0.5,526.167 -0.5,499.5 Z"/></g>
<g><path style="opacity:1" fill="#34104a" d="M 139.5,479.5 C 159.5,479.5 179.5,479.5 199.5,479.5C 199.5,512.833 199.5,546.167 199.5,579.5C 186.167,579.5 172.833,579.5 159.5,579.5C 159.5,572.833 159.5,566.167 159.5,559.5C 152.833,559.5 146.167,559.5 139.5,559.5C 139.5,546.167 139.5,532.833 139.5,519.5C 139.5,506.167 139.5,492.833 139.5,479.5 Z"/></g>
<g><path style="opacity:1" fill="#37104c" d="M 219.5,499.5 C 226.167,499.5 232.833,499.5 239.5,499.5C 239.5,506.167 239.5,512.833 239.5,519.5C 239.5,526.167 239.5,532.833 239.5,539.5C 239.5,546.167 239.5,552.833 239.5,559.5C 232.833,559.5 226.167,559.5 219.5,559.5C 219.5,539.5 219.5,519.5 219.5,499.5 Z"/></g>
<g><path style="opacity:1" fill="#a25ab4" d="M 239.5,499.5 C 246.167,499.5 252.833,499.5 259.5,499.5C 259.5,506.167 259.5,512.833 259.5,519.5C 252.833,519.5 246.167,519.5 239.5,519.5C 239.5,512.833 239.5,506.167 239.5,499.5 Z"/></g>
<g><path style="opacity:1" fill="#e7b5ee" d="M 259.5,499.5 C 266.167,499.5 272.833,499.5 279.5,499.5C 279.5,506.167 279.5,512.833 279.5,519.5C 272.833,519.5 266.167,519.5 259.5,519.5C 259.5,512.833 259.5,506.167 259.5,499.5 Z"/></g>
<g><path style="opacity:1" fill="#d260e5" d="M 279.5,479.5 C 286.167,479.5 292.833,479.5 299.5,479.5C 299.5,486.167 299.5,492.833 299.5,499.5C 299.5,506.167 299.5,512.833 299.5,519.5C 292.833,519.5 286.167,519.5 279.5,519.5C 279.5,512.833 279.5,506.167 279.5,499.5C 279.5,492.833 279.5,486.167 279.5,479.5 Z"/></g>
<g><path style="opacity:1" fill="#d247e8" d="M 299.5,499.5 C 312.833,499.5 326.167,499.5 339.5,499.5C 339.5,506.167 339.5,512.833 339.5,519.5C 332.833,519.5 326.167,519.5 319.5,519.5C 319.5,526.167 319.5,532.833 319.5,539.5C 312.833,539.5 306.167,539.5 299.5,539.5C 299.5,532.833 299.5,526.167 299.5,519.5C 299.5,512.833 299.5,506.167 299.5,499.5 Z"/></g>
<g><path style="opacity:1" fill="#c951e1" d="M 339.5,499.5 C 346.167,499.5 352.833,499.5 359.5,499.5C 359.5,506.167 359.5,512.833 359.5,519.5C 352.833,519.5 346.167,519.5 339.5,519.5C 339.5,512.833 339.5,506.167 339.5,499.5 Z"/></g>
<g><path style="opacity:1" fill="#de8dec" d="M 359.5,499.5 C 366.167,499.5 372.833,499.5 379.5,499.5C 379.5,506.167 379.5,512.833 379.5,519.5C 372.833,519.5 366.167,519.5 359.5,519.5C 359.5,512.833 359.5,506.167 359.5,499.5 Z"/></g>
<g><path style="opacity:1" fill="#8e48a2" d="M 379.5,499.5 C 386.167,499.5 392.833,499.5 399.5,499.5C 399.5,506.167 399.5,512.833 399.5,519.5C 392.833,519.5 386.167,519.5 379.5,519.5C 379.5,512.833 379.5,506.167 379.5,499.5 Z"/></g>
<g><path style="opacity:1" fill="#28093b" d="M 419.5,479.5 C 426.167,479.5 432.833,479.5 439.5,479.5C 439.5,492.833 439.5,506.167 439.5,519.5C 432.833,519.5 426.167,519.5 419.5,519.5C 419.5,512.833 419.5,506.167 419.5,499.5C 419.5,492.833 419.5,486.167 419.5,479.5 Z"/></g>
<g><path style="opacity:1" fill="#26143c" d="M 499.5,479.5 C 506.167,479.5 512.833,479.5 519.5,479.5C 519.5,506.167 519.5,532.833 519.5,559.5C 512.833,559.5 506.167,559.5 499.5,559.5C 499.5,532.833 499.5,506.167 499.5,479.5 Z"/></g>
<g><path style="opacity:1" fill="#1e1631" d="M 519.5,479.5 C 526.167,479.5 532.833,479.5 539.5,479.5C 539.5,492.833 539.5,506.167 539.5,519.5C 539.5,539.5 539.5,559.5 539.5,579.5C 532.833,579.5 526.167,579.5 519.5,579.5C 519.5,572.833 519.5,566.167 519.5,559.5C 519.5,532.833 519.5,506.167 519.5,479.5 Z"/></g>
<g><path style="opacity:1" fill="#1a1628" d="M 639.5,499.5 C 639.5,526.167 639.5,552.833 639.5,579.5C 606.167,579.5 572.833,579.5 539.5,579.5C 539.5,559.5 539.5,539.5 539.5,519.5C 546.167,519.5 552.833,519.5 559.5,519.5C 559.5,512.833 559.5,506.167 559.5,499.5C 586.167,499.5 612.833,499.5 639.5,499.5 Z"/></g>
<g><path style="opacity:1" fill="#843a9a" d="M 239.5,519.5 C 246.167,519.5 252.833,519.5 259.5,519.5C 259.5,526.167 259.5,532.833 259.5,539.5C 252.833,539.5 246.167,539.5 239.5,539.5C 239.5,532.833 239.5,526.167 239.5,519.5 Z"/></g>
<g><path style="opacity:1" fill="#db85ed" d="M 259.5,519.5 C 266.167,519.5 272.833,519.5 279.5,519.5C 279.5,526.167 279.5,532.833 279.5,539.5C 272.833,539.5 266.167,539.5 259.5,539.5C 259.5,532.833 259.5,526.167 259.5,519.5 Z"/></g>
<g><path style="opacity:1" fill="#f3cdfa" d="M 279.5,519.5 C 286.167,519.5 292.833,519.5 299.5,519.5C 299.5,526.167 299.5,532.833 299.5,539.5C 292.833,539.5 286.167,539.5 279.5,539.5C 279.5,532.833 279.5,526.167 279.5,519.5 Z"/></g>
<g><path style="opacity:1" fill="#c33ae0" d="M 339.5,519.5 C 346.167,519.5 352.833,519.5 359.5,519.5C 359.5,526.167 359.5,532.833 359.5,539.5C 359.5,546.167 359.5,552.833 359.5,559.5C 352.833,559.5 346.167,559.5 339.5,559.5C 339.5,566.167 339.5,572.833 339.5,579.5C 332.833,579.5 326.167,579.5 319.5,579.5C 312.833,579.5 306.167,579.5 299.5,579.5C 299.5,572.833 299.5,566.167 299.5,559.5C 299.5,552.833 299.5,546.167 299.5,539.5C 306.167,539.5 312.833,539.5 319.5,539.5C 319.5,532.833 319.5,526.167 319.5,519.5C 326.167,519.5 332.833,519.5 339.5,519.5 Z"/></g>
<g><path style="opacity:1" fill="#b042cb" d="M 359.5,519.5 C 366.167,519.5 372.833,519.5 379.5,519.5C 379.5,526.167 379.5,532.833 379.5,539.5C 372.833,539.5 366.167,539.5 359.5,539.5C 359.5,532.833 359.5,526.167 359.5,519.5 Z"/></g>
<g><path style="opacity:1" fill="#551c6d" d="M 379.5,519.5 C 386.167,519.5 392.833,519.5 399.5,519.5C 399.5,526.167 399.5,532.833 399.5,539.5C 392.833,539.5 386.167,539.5 379.5,539.5C 379.5,532.833 379.5,526.167 379.5,519.5 Z"/></g>
<g><path style="opacity:1" fill="#2f0b43" d="M 399.5,499.5 C 406.167,499.5 412.833,499.5 419.5,499.5C 419.5,506.167 419.5,512.833 419.5,519.5C 426.167,519.5 432.833,519.5 439.5,519.5C 439.5,552.833 439.5,586.167 439.5,619.5C 432.833,619.5 426.167,619.5 419.5,619.5C 412.833,619.5 406.167,619.5 399.5,619.5C 399.5,612.833 399.5,606.167 399.5,599.5C 399.5,592.833 399.5,586.167 399.5,579.5C 399.5,566.167 399.5,552.833 399.5,539.5C 399.5,532.833 399.5,526.167 399.5,519.5C 399.5,512.833 399.5,506.167 399.5,499.5 Z"/></g>
<g><path style="opacity:1" fill="#2c1141" d="M 439.5,519.5 C 446.167,519.5 452.833,519.5 459.5,519.5C 459.5,546.167 459.5,572.833 459.5,599.5C 459.5,606.167 459.5,612.833 459.5,619.5C 452.833,619.5 446.167,619.5 439.5,619.5C 439.5,586.167 439.5,552.833 439.5,519.5 Z"/></g>
<g><path style="opacity:1" fill="#211430" d="M 119.5,519.5 C 126.167,519.5 132.833,519.5 139.5,519.5C 139.5,532.833 139.5,546.167 139.5,559.5C 132.833,559.5 126.167,559.5 119.5,559.5C 119.5,546.167 119.5,532.833 119.5,519.5 Z"/></g>
<g><path style="opacity:1" fill="#29083d" d="M 199.5,479.5 C 206.167,479.5 212.833,479.5 219.5,479.5C 219.5,486.167 219.5,492.833 219.5,499.5C 219.5,519.5 219.5,539.5 219.5,559.5C 219.5,566.167 219.5,572.833 219.5,579.5C 212.833,579.5 206.167,579.5 199.5,579.5C 199.5,546.167 199.5,512.833 199.5,479.5 Z"/></g>
<g><path style="opacity:1" fill="#70258a" d="M 239.5,539.5 C 246.167,539.5 252.833,539.5 259.5,539.5C 259.5,546.167 259.5,552.833 259.5,559.5C 252.833,559.5 246.167,559.5 239.5,559.5C 239.5,552.833 239.5,546.167 239.5,539.5 Z"/></g>
<g><path style="opacity:1" fill="#b744d2" d="M 259.5,539.5 C 266.167,539.5 272.833,539.5 279.5,539.5C 279.5,546.167 279.5,552.833 279.5,559.5C 272.833,559.5 266.167,559.5 259.5,559.5C 259.5,552.833 259.5,546.167 259.5,539.5 Z"/></g>
<g><path style="opacity:1" fill="#cc51e7" d="M 279.5,539.5 C 286.167,539.5 292.833,539.5 299.5,539.5C 299.5,546.167 299.5,552.833 299.5,559.5C 292.833,559.5 286.167,559.5 279.5,559.5C 279.5,552.833 279.5,546.167 279.5,539.5 Z"/></g>
<g><path style="opacity:1" fill="#8829a4" d="M 359.5,539.5 C 366.167,539.5 372.833,539.5 379.5,539.5C 379.5,546.167 379.5,552.833 379.5,559.5C 372.833,559.5 366.167,559.5 359.5,559.5C 359.5,552.833 359.5,546.167 359.5,539.5 Z"/></g>
<g><path style="opacity:1" fill="#1b1524" d="M 139.5,579.5 C 139.5,586.167 139.5,592.833 139.5,599.5C 132.833,599.5 126.167,599.5 119.5,599.5C 119.5,612.833 119.5,626.167 119.5,639.5C 79.5,639.5 39.5,639.5 -0.5,639.5C -0.5,619.5 -0.5,599.5 -0.5,579.5C 12.8333,579.5 26.1667,579.5 39.5,579.5C 39.5,572.833 39.5,566.167 39.5,559.5C 52.8333,559.5 66.1667,559.5 79.5,559.5C 79.5,566.167 79.5,572.833 79.5,579.5C 99.5,579.5 119.5,579.5 139.5,579.5 Z"/></g>
<g><path style="opacity:1" fill="#29143c" d="M 139.5,559.5 C 146.167,559.5 152.833,559.5 159.5,559.5C 159.5,566.167 159.5,572.833 159.5,579.5C 152.833,579.5 146.167,579.5 139.5,579.5C 139.5,572.833 139.5,566.167 139.5,559.5 Z"/></g>
<g><path style="opacity:1" fill="#3c1252" d="M 219.5,559.5 C 226.167,559.5 232.833,559.5 239.5,559.5C 246.167,559.5 252.833,559.5 259.5,559.5C 259.5,566.167 259.5,572.833 259.5,579.5C 259.5,592.833 259.5,606.167 259.5,619.5C 252.833,619.5 246.167,619.5 239.5,619.5C 239.5,606.167 239.5,592.833 239.5,579.5C 232.833,579.5 226.167,579.5 219.5,579.5C 219.5,572.833 219.5,566.167 219.5,559.5 Z"/></g>
<g><path style="opacity:1" fill="#792493" d="M 259.5,559.5 C 266.167,559.5 272.833,559.5 279.5,559.5C 279.5,566.167 279.5,572.833 279.5,579.5C 272.833,579.5 266.167,579.5 259.5,579.5C 259.5,572.833 259.5,566.167 259.5,559.5 Z"/></g>
<g><path style="opacity:1" fill="#b537d3" d="M 279.5,559.5 C 286.167,559.5 292.833,559.5 299.5,559.5C 299.5,566.167 299.5,572.833 299.5,579.5C 292.833,579.5 286.167,579.5 279.5,579.5C 279.5,572.833 279.5,566.167 279.5,559.5 Z"/></g>
<g><path style="opacity:1" fill="#aa33c8" d="M 359.5,559.5 C 359.5,566.167 359.5,572.833 359.5,579.5C 352.833,579.5 346.167,579.5 339.5,579.5C 339.5,572.833 339.5,566.167 339.5,559.5C 346.167,559.5 352.833,559.5 359.5,559.5 Z"/></g>
<g><path style="opacity:1" fill="#541a6c" d="M 359.5,559.5 C 366.167,559.5 372.833,559.5 379.5,559.5C 379.5,566.167 379.5,572.833 379.5,579.5C 372.833,579.5 366.167,579.5 359.5,579.5C 359.5,572.833 359.5,566.167 359.5,559.5 Z"/></g>
<g><path style="opacity:1" fill="#401357" d="M 379.5,539.5 C 386.167,539.5 392.833,539.5 399.5,539.5C 399.5,552.833 399.5,566.167 399.5,579.5C 392.833,579.5 386.167,579.5 379.5,579.5C 379.5,572.833 379.5,566.167 379.5,559.5C 379.5,552.833 379.5,546.167 379.5,539.5 Z"/></g>
<g><path style="opacity:1" fill="#231434" d="M 499.5,559.5 C 506.167,559.5 512.833,559.5 519.5,559.5C 519.5,566.167 519.5,572.833 519.5,579.5C 519.5,586.167 519.5,592.833 519.5,599.5C 512.833,599.5 506.167,599.5 499.5,599.5C 499.5,586.167 499.5,572.833 499.5,559.5 Z"/></g>
<g><path style="opacity:1" fill="#21162f" d="M 139.5,579.5 C 146.167,579.5 152.833,579.5 159.5,579.5C 159.5,586.167 159.5,592.833 159.5,599.5C 152.833,599.5 146.167,599.5 139.5,599.5C 139.5,592.833 139.5,586.167 139.5,579.5 Z"/></g>
<g><path style="opacity:1" fill="#301243" d="M 159.5,579.5 C 172.833,579.5 186.167,579.5 199.5,579.5C 206.167,579.5 212.833,579.5 219.5,579.5C 219.5,592.833 219.5,606.167 219.5,619.5C 212.833,619.5 206.167,619.5 199.5,619.5C 199.5,612.833 199.5,606.167 199.5,599.5C 192.833,599.5 186.167,599.5 179.5,599.5C 172.833,599.5 166.167,599.5 159.5,599.5C 159.5,592.833 159.5,586.167 159.5,579.5 Z"/></g>
<g><path style="opacity:1" fill="#2f0b43" d="M 219.5,579.5 C 226.167,579.5 232.833,579.5 239.5,579.5C 239.5,592.833 239.5,606.167 239.5,619.5C 232.833,619.5 226.167,619.5 219.5,619.5C 219.5,606.167 219.5,592.833 219.5,579.5 Z"/></g>
<g><path style="opacity:1" fill="#792494" d="M 279.5,579.5 C 286.167,579.5 292.833,579.5 299.5,579.5C 299.5,586.167 299.5,592.833 299.5,599.5C 292.833,599.5 286.167,599.5 279.5,599.5C 279.5,592.833 279.5,586.167 279.5,579.5 Z"/></g>
<g><path style="opacity:1" fill="#9e2fbb" d="M 299.5,579.5 C 306.167,579.5 312.833,579.5 319.5,579.5C 319.5,586.167 319.5,592.833 319.5,599.5C 312.833,599.5 306.167,599.5 299.5,599.5C 299.5,592.833 299.5,586.167 299.5,579.5 Z"/></g>
<g><path style="opacity:1" fill="#ac33ca" d="M 319.5,579.5 C 326.167,579.5 332.833,579.5 339.5,579.5C 339.5,586.167 339.5,592.833 339.5,599.5C 332.833,599.5 326.167,599.5 319.5,599.5C 319.5,592.833 319.5,586.167 319.5,579.5 Z"/></g>
<g><path style="opacity:1" fill="#952cb1" d="M 339.5,579.5 C 346.167,579.5 352.833,579.5 359.5,579.5C 359.5,586.167 359.5,592.833 359.5,599.5C 352.833,599.5 346.167,599.5 339.5,599.5C 339.5,592.833 339.5,586.167 339.5,579.5 Z"/></g>
<g><path style="opacity:1" fill="#631d7c" d="M 359.5,579.5 C 366.167,579.5 372.833,579.5 379.5,579.5C 379.5,586.167 379.5,592.833 379.5,599.5C 372.833,599.5 366.167,599.5 359.5,599.5C 359.5,592.833 359.5,586.167 359.5,579.5 Z"/></g>
<g><path style="opacity:1" fill="#491360" d="M 379.5,579.5 C 386.167,579.5 392.833,579.5 399.5,579.5C 399.5,586.167 399.5,592.833 399.5,599.5C 392.833,599.5 386.167,599.5 379.5,599.5C 379.5,592.833 379.5,586.167 379.5,579.5 Z"/></g>
<g><path style="opacity:1" fill="#1d1528" d="M 519.5,579.5 C 526.167,579.5 532.833,579.5 539.5,579.5C 539.5,592.833 539.5,606.167 539.5,619.5C 532.833,619.5 526.167,619.5 519.5,619.5C 519.5,626.167 519.5,632.833 519.5,639.5C 506.167,639.5 492.833,639.5 479.5,639.5C 479.5,632.833 479.5,626.167 479.5,619.5C 486.167,619.5 492.833,619.5 499.5,619.5C 499.5,612.833 499.5,606.167 499.5,599.5C 506.167,599.5 512.833,599.5 519.5,599.5C 519.5,592.833 519.5,586.167 519.5,579.5 Z"/></g>
<g><path style="opacity:1" fill="#1a1524" d="M 539.5,579.5 C 572.833,579.5 606.167,579.5 639.5,579.5C 639.5,599.5 639.5,619.5 639.5,639.5C 599.5,639.5 559.5,639.5 519.5,639.5C 519.5,632.833 519.5,626.167 519.5,619.5C 526.167,619.5 532.833,619.5 539.5,619.5C 539.5,606.167 539.5,592.833 539.5,579.5 Z"/></g>
<g><path style="opacity:1" fill="#1e1729" d="M 139.5,599.5 C 146.167,599.5 152.833,599.5 159.5,599.5C 159.5,606.167 159.5,612.833 159.5,619.5C 166.167,619.5 172.833,619.5 179.5,619.5C 179.5,626.167 179.5,632.833 179.5,639.5C 159.5,639.5 139.5,639.5 119.5,639.5C 119.5,626.167 119.5,612.833 119.5,599.5C 126.167,599.5 132.833,599.5 139.5,599.5 Z"/></g>
<g><path style="opacity:1" fill="#271b37" d="M 159.5,599.5 C 166.167,599.5 172.833,599.5 179.5,599.5C 179.5,606.167 179.5,612.833 179.5,619.5C 172.833,619.5 166.167,619.5 159.5,619.5C 159.5,612.833 159.5,606.167 159.5,599.5 Z"/></g>
<g><path style="opacity:1" fill="#2d1a3f" d="M 179.5,599.5 C 186.167,599.5 192.833,599.5 199.5,599.5C 199.5,606.167 199.5,612.833 199.5,619.5C 192.833,619.5 186.167,619.5 179.5,619.5C 179.5,612.833 179.5,606.167 179.5,599.5 Z"/></g>
<g><path style="opacity:1" fill="#46155c" d="M 259.5,579.5 C 266.167,579.5 272.833,579.5 279.5,579.5C 279.5,586.167 279.5,592.833 279.5,599.5C 286.167,599.5 292.833,599.5 299.5,599.5C 306.167,599.5 312.833,599.5 319.5,599.5C 319.5,606.167 319.5,612.833 319.5,619.5C 319.5,626.167 319.5,632.833 319.5,639.5C 306.167,639.5 292.833,639.5 279.5,639.5C 279.5,632.833 279.5,626.167 279.5,619.5C 272.833,619.5 266.167,619.5 259.5,619.5C 259.5,606.167 259.5,592.833 259.5,579.5 Z"/></g>
<g><path style="opacity:1" fill="#571a6f" d="M 319.5,599.5 C 326.167,599.5 332.833,599.5 339.5,599.5C 339.5,606.167 339.5,612.833 339.5,619.5C 332.833,619.5 326.167,619.5 319.5,619.5C 319.5,612.833 319.5,606.167 319.5,599.5 Z"/></g>
<g><path style="opacity:1" fill="#54196b" d="M 359.5,599.5 C 366.167,599.5 372.833,599.5 379.5,599.5C 379.5,606.167 379.5,612.833 379.5,619.5C 372.833,619.5 366.167,619.5 359.5,619.5C 359.5,612.833 359.5,606.167 359.5,599.5 Z"/></g>
<g><path style="opacity:1" fill="#401055" d="M 379.5,599.5 C 386.167,599.5 392.833,599.5 399.5,599.5C 399.5,606.167 399.5,612.833 399.5,619.5C 392.833,619.5 386.167,619.5 379.5,619.5C 379.5,612.833 379.5,606.167 379.5,599.5 Z"/></g>
<g><path style="opacity:1" fill="#28173c" d="M 459.5,599.5 C 466.167,599.5 472.833,599.5 479.5,599.5C 479.5,606.167 479.5,612.833 479.5,619.5C 472.833,619.5 466.167,619.5 459.5,619.5C 459.5,612.833 459.5,606.167 459.5,599.5 Z"/></g>
<g><path style="opacity:1" fill="#231633" d="M 479.5,599.5 C 486.167,599.5 492.833,599.5 499.5,599.5C 499.5,606.167 499.5,612.833 499.5,619.5C 492.833,619.5 486.167,619.5 479.5,619.5C 479.5,612.833 479.5,606.167 479.5,599.5 Z"/></g>
<g><path style="opacity:1" fill="#261b35" d="M 179.5,619.5 C 186.167,619.5 192.833,619.5 199.5,619.5C 199.5,626.167 199.5,632.833 199.5,639.5C 192.833,639.5 186.167,639.5 179.5,639.5C 179.5,632.833 179.5,626.167 179.5,619.5 Z"/></g>
<g><path style="opacity:1" fill="#29183a" d="M 199.5,619.5 C 206.167,619.5 212.833,619.5 219.5,619.5C 219.5,626.167 219.5,632.833 219.5,639.5C 212.833,639.5 206.167,639.5 199.5,639.5C 199.5,632.833 199.5,626.167 199.5,619.5 Z"/></g>
<g><path style="opacity:1" fill="#2c123e" d="M 219.5,619.5 C 226.167,619.5 232.833,619.5 239.5,619.5C 239.5,626.167 239.5,632.833 239.5,639.5C 232.833,639.5 226.167,639.5 219.5,639.5C 219.5,632.833 219.5,626.167 219.5,619.5 Z"/></g>
<g><path style="opacity:1" fill="#351148" d="M 239.5,619.5 C 246.167,619.5 252.833,619.5 259.5,619.5C 259.5,626.167 259.5,632.833 259.5,639.5C 252.833,639.5 246.167,639.5 239.5,639.5C 239.5,632.833 239.5,626.167 239.5,619.5 Z"/></g>
<g><path style="opacity:1" fill="#3f1353" d="M 259.5,619.5 C 266.167,619.5 272.833,619.5 279.5,619.5C 279.5,626.167 279.5,632.833 279.5,639.5C 272.833,639.5 266.167,639.5 259.5,639.5C 259.5,632.833 259.5,626.167 259.5,619.5 Z"/></g>
<g><path style="opacity:1" fill="#3f1355" d="M 339.5,599.5 C 346.167,599.5 352.833,599.5 359.5,599.5C 359.5,606.167 359.5,612.833 359.5,619.5C 366.167,619.5 372.833,619.5 379.5,619.5C 379.5,626.167 379.5,632.833 379.5,639.5C 359.5,639.5 339.5,639.5 319.5,639.5C 319.5,632.833 319.5,626.167 319.5,619.5C 326.167,619.5 332.833,619.5 339.5,619.5C 339.5,612.833 339.5,606.167 339.5,599.5 Z"/></g>
<g><path style="opacity:1" fill="#36114a" d="M 379.5,619.5 C 386.167,619.5 392.833,619.5 399.5,619.5C 399.5,626.167 399.5,632.833 399.5,639.5C 392.833,639.5 386.167,639.5 379.5,639.5C 379.5,632.833 379.5,626.167 379.5,619.5 Z"/></g>
<g><path style="opacity:1" fill="#301142" d="M 399.5,619.5 C 406.167,619.5 412.833,619.5 419.5,619.5C 419.5,626.167 419.5,632.833 419.5,639.5C 412.833,639.5 406.167,639.5 399.5,639.5C 399.5,632.833 399.5,626.167 399.5,619.5 Z"/></g>
<g><path style="opacity:1" fill="#2a143d" d="M 419.5,619.5 C 426.167,619.5 432.833,619.5 439.5,619.5C 439.5,626.167 439.5,632.833 439.5,639.5C 432.833,639.5 426.167,639.5 419.5,639.5C 419.5,632.833 419.5,626.167 419.5,619.5 Z"/></g>
<g><path style="opacity:1" fill="#271637" d="M 439.5,619.5 C 446.167,619.5 452.833,619.5 459.5,619.5C 459.5,626.167 459.5,632.833 459.5,639.5C 452.833,639.5 446.167,639.5 439.5,639.5C 439.5,632.833 439.5,626.167 439.5,619.5 Z"/></g>
<g><path style="opacity:1" fill="#221731" d="M 459.5,619.5 C 466.167,619.5 472.833,619.5 479.5,619.5C 479.5,626.167 479.5,632.833 479.5,639.5C 472.833,639.5 466.167,639.5 459.5,639.5C 459.5,632.833 459.5,626.167 459.5,619.5 Z"/></g>
</svg>
